<svg width="184" height="35" viewBox="0 0 184 35" fill="none" xmlns="http://www.w3.org/2000/svg">
<rect width="184" height="35" fill="#F5F5F5"/>
<g clip-path="url(#clip0_0_1)">
<rect width="1920" height="7944" transform="translate(-1575 -23)" fill="#111223"/>
<g filter="url(#filter0_b_0_1)">
<mask id="path-1-inside-1_0_1" fill="white">
<path d="M-1575 -23H345V59H-1575V-23Z"/>
</mask>
<path d="M-1575 -23H345V59H-1575V-23Z" fill="#111223"/>
<path d="M345 58H-1575V60H345V58Z" fill="#595959" mask="url(#path-1-inside-1_0_1)"/>
</g>
<path d="M30.5625 17.8594V17.6953C30.5625 17.0755 30.651 16.5052 30.8281 15.9844C31.0052 15.4583 31.263 15.0026 31.6016 14.6172C31.9401 14.2318 32.3542 13.9323 32.8438 13.7188C33.3333 13.5 33.8906 13.3906 34.5156 13.3906C35.151 13.3906 35.7135 13.5 36.2031 13.7188C36.6979 13.9323 37.1146 14.2318 37.4531 14.6172C37.7917 15.0026 38.0495 15.4583 38.2266 15.9844C38.4036 16.5052 38.4922 17.0755 38.4922 17.6953V17.8594C38.4922 18.474 38.4036 19.0443 38.2266 19.5703C38.0495 20.0911 37.7917 20.5469 37.4531 20.9375C37.1146 21.3229 36.7005 21.6224 36.2109 21.8359C35.7214 22.0495 35.1615 22.1562 34.5312 22.1562C33.9062 22.1562 33.3464 22.0495 32.8516 21.8359C32.3568 21.6224 31.9401 21.3229 31.6016 20.9375C31.263 20.5469 31.0052 20.0911 30.8281 19.5703C30.651 19.0443 30.5625 18.474 30.5625 17.8594ZM32.625 17.6953V17.8594C32.625 18.2292 32.6615 18.5755 32.7344 18.8984C32.8073 19.2214 32.9193 19.5052 33.0703 19.75C33.2214 19.9948 33.4167 20.1875 33.6562 20.3281C33.901 20.4635 34.1927 20.5312 34.5312 20.5312C34.8646 20.5312 35.151 20.4635 35.3906 20.3281C35.6302 20.1875 35.8255 19.9948 35.9766 19.75C36.1328 19.5052 36.2474 19.2214 36.3203 18.8984C36.3932 18.5755 36.4297 18.2292 36.4297 17.8594V17.6953C36.4297 17.3307 36.3932 16.9896 36.3203 16.6719C36.2474 16.349 36.1328 16.0651 35.9766 15.8203C35.8255 15.5703 35.6276 15.375 35.3828 15.2344C35.1432 15.0885 34.8542 15.0156 34.5156 15.0156C34.1823 15.0156 33.8958 15.0885 33.6562 15.2344C33.4167 15.375 33.2214 15.5703 33.0703 15.8203C32.9193 16.0651 32.8073 16.349 32.7344 16.6719C32.6615 16.9896 32.625 17.3307 32.625 17.6953ZM43.4609 20.5312C43.7526 20.5312 44.013 20.474 44.2422 20.3594C44.4714 20.2448 44.6536 20.0833 44.7891 19.875C44.9297 19.6667 45.0052 19.4245 45.0156 19.1484H46.9609C46.9505 19.7214 46.7891 20.2344 46.4766 20.6875C46.1641 21.1406 45.7474 21.5 45.2266 21.7656C44.7109 22.026 44.1328 22.1562 43.4922 22.1562C42.8411 22.1562 42.2734 22.0469 41.7891 21.8281C41.3047 21.6094 40.901 21.3047 40.5781 20.9141C40.2604 20.5234 40.0208 20.0703 39.8594 19.5547C39.7031 19.0391 39.625 18.487 39.625 17.8984V17.6484C39.625 17.0599 39.7031 16.5078 39.8594 15.9922C40.0208 15.4766 40.2604 15.0234 40.5781 14.6328C40.901 14.2422 41.3047 13.9375 41.7891 13.7188C42.2734 13.5 42.8385 13.3906 43.4844 13.3906C44.1667 13.3906 44.7656 13.5234 45.2812 13.7891C45.8021 14.0547 46.2083 14.4297 46.5 14.9141C46.7969 15.3984 46.9505 15.9688 46.9609 16.625H45.0156C45.0052 16.3229 44.9375 16.0521 44.8125 15.8125C44.6875 15.5729 44.5104 15.3802 44.2812 15.2344C44.0521 15.0885 43.7734 15.0156 43.4453 15.0156C43.0964 15.0156 42.8047 15.0885 42.5703 15.2344C42.3411 15.3802 42.1615 15.5807 42.0312 15.8359C41.9062 16.0859 41.8177 16.3672 41.7656 16.6797C41.7188 16.987 41.6953 17.3099 41.6953 17.6484V17.8984C41.6953 18.2422 41.7188 18.5703 41.7656 18.8828C41.8177 19.1953 41.9062 19.4766 42.0312 19.7266C42.1615 19.9714 42.3411 20.1667 42.5703 20.3125C42.8047 20.4583 43.1016 20.5312 43.4609 20.5312ZM52.4375 13.5469V22H50.3672V13.5469H52.4375ZM55.1875 13.5469V15.1562H47.6641V13.5469H55.1875ZM60.9297 20.2031V16.3047C60.9297 16.0182 60.8802 15.7708 60.7812 15.5625C60.6823 15.3542 60.5312 15.1927 60.3281 15.0781C60.125 14.9635 59.8672 14.9062 59.5547 14.9062C59.2786 14.9062 59.0365 14.9531 58.8281 15.0469C58.625 15.1406 58.4688 15.2734 58.3594 15.4453C58.25 15.612 58.1953 15.8047 58.1953 16.0234H56.125C56.125 15.6745 56.2083 15.3438 56.375 15.0312C56.5417 14.7135 56.7786 14.4323 57.0859 14.1875C57.3984 13.9375 57.7708 13.7422 58.2031 13.6016C58.6406 13.4609 59.1302 13.3906 59.6719 13.3906C60.3125 13.3906 60.8828 13.5 61.3828 13.7188C61.888 13.9323 62.2839 14.2552 62.5703 14.6875C62.862 15.1198 63.0078 15.6641 63.0078 16.3203V20.0078C63.0078 20.4297 63.0339 20.7917 63.0859 21.0938C63.1432 21.3906 63.2266 21.6484 63.3359 21.8672V22H61.2344C61.1354 21.7865 61.0599 21.5156 61.0078 21.1875C60.9557 20.8542 60.9297 20.526 60.9297 20.2031ZM61.2188 16.8516L61.2344 18.0781H59.9297C59.6068 18.0781 59.3229 18.112 59.0781 18.1797C58.8333 18.2422 58.6328 18.3359 58.4766 18.4609C58.3203 18.5807 58.2031 18.7266 58.125 18.8984C58.0469 19.0651 58.0078 19.2552 58.0078 19.4688C58.0078 19.6771 58.0547 19.8646 58.1484 20.0312C58.2474 20.1979 58.388 20.3307 58.5703 20.4297C58.7578 20.5234 58.9766 20.5703 59.2266 20.5703C59.5911 20.5703 59.9089 20.4974 60.1797 20.3516C60.4505 20.2005 60.6615 20.0182 60.8125 19.8047C60.9635 19.5911 61.0443 19.388 61.0547 19.1953L61.6484 20.0859C61.5755 20.2995 61.4661 20.526 61.3203 20.7656C61.1745 21.0052 60.987 21.2292 60.7578 21.4375C60.5286 21.6458 60.2526 21.8177 59.9297 21.9531C59.6068 22.0885 59.2318 22.1562 58.8047 22.1562C58.2578 22.1562 57.7682 22.0469 57.3359 21.8281C56.9036 21.6094 56.5625 21.3099 56.3125 20.9297C56.0625 20.5495 55.9375 20.1172 55.9375 19.6328C55.9375 19.1849 56.0208 18.7891 56.1875 18.4453C56.3542 18.1016 56.6016 17.8125 56.9297 17.5781C57.2578 17.3385 57.6641 17.1589 58.1484 17.0391C58.638 16.9141 59.1979 16.8516 59.8281 16.8516H61.2188ZM69.0234 18.4219H66.3438L66.3281 17.0234H68.5312C68.8594 17.0234 69.1276 16.9896 69.3359 16.9219C69.5443 16.8542 69.6979 16.7526 69.7969 16.6172C69.901 16.4818 69.9531 16.3177 69.9531 16.125C69.9531 15.9583 69.9219 15.8151 69.8594 15.6953C69.7969 15.5703 69.7031 15.4688 69.5781 15.3906C69.4583 15.3125 69.3047 15.2552 69.1172 15.2188C68.9349 15.1771 68.7214 15.1562 68.4766 15.1562H67.0781V22H65.0078V13.5469H68.4766C69.0234 13.5469 69.5156 13.5964 69.9531 13.6953C70.3906 13.7891 70.763 13.9323 71.0703 14.125C71.3776 14.3177 71.612 14.5625 71.7734 14.8594C71.9401 15.151 72.0234 15.4948 72.0234 15.8906C72.0234 16.151 71.9661 16.3958 71.8516 16.625C71.737 16.8542 71.5677 17.0573 71.3438 17.2344C71.1198 17.4115 70.8438 17.5573 70.5156 17.6719C70.1875 17.7812 69.8125 17.849 69.3906 17.875L69.0234 18.4219ZM69.0234 22H65.7891L66.5547 20.3906H69.0234C69.3255 20.3906 69.5755 20.3542 69.7734 20.2812C69.9714 20.2031 70.1172 20.0911 70.2109 19.9453C70.3099 19.7995 70.3594 19.6224 70.3594 19.4141C70.3594 19.2109 70.3125 19.0365 70.2188 18.8906C70.1302 18.7396 69.987 18.625 69.7891 18.5469C69.5964 18.4635 69.3411 18.4219 69.0234 18.4219H66.8906L66.9062 17.0234H69.3828L69.9297 17.5781C70.4922 17.6146 70.9583 17.7292 71.3281 17.9219C71.6979 18.1094 71.974 18.349 72.1562 18.6406C72.3385 18.9271 72.4297 19.2422 72.4297 19.5859C72.4297 19.987 72.3542 20.3385 72.2031 20.6406C72.0521 20.9427 71.8307 21.1953 71.5391 21.3984C71.2474 21.5964 70.8906 21.7474 70.4688 21.8516C70.0469 21.9505 69.5651 22 69.0234 22ZM76.0156 19.0547L79.0938 13.5469H81.1641V22H79.0938V16.4844L76.0156 22H73.9453V13.5469H76.0156V19.0547ZM87.1406 13.5469V22H85.0703V13.5469H87.1406ZM89.8906 13.5469V15.1562H82.3672V13.5469H89.8906ZM92.5703 16.1484H95.0391C95.7891 16.1484 96.4271 16.2734 96.9531 16.5234C97.4844 16.7682 97.888 17.112 98.1641 17.5547C98.4453 17.9922 98.5859 18.5 98.5859 19.0781C98.5859 19.4948 98.5052 19.8828 98.3438 20.2422C98.1875 20.5964 97.9583 20.9062 97.6562 21.1719C97.3542 21.4323 96.9818 21.6354 96.5391 21.7812C96.1016 21.9271 95.6016 22 95.0391 22H91.2422V13.5469H93.3125V20.3828H95.0391C95.3984 20.3828 95.6849 20.3229 95.8984 20.2031C96.1172 20.0781 96.2734 19.9193 96.3672 19.7266C96.4661 19.5286 96.5156 19.3177 96.5156 19.0938C96.5156 18.8646 96.4661 18.651 96.3672 18.4531C96.2734 18.25 96.1172 18.0859 95.8984 17.9609C95.6849 17.8359 95.3984 17.7734 95.0391 17.7734H92.5703V16.1484ZM107.586 17.9688H105.938V16.9844H107.195C107.503 16.9844 107.747 16.9427 107.93 16.8594C108.117 16.776 108.25 16.6589 108.328 16.5078C108.411 16.3568 108.453 16.1823 108.453 15.9844C108.453 15.8073 108.414 15.6406 108.336 15.4844C108.258 15.3229 108.128 15.1927 107.945 15.0938C107.763 14.9896 107.51 14.9375 107.188 14.9375C106.922 14.9375 106.685 14.9792 106.477 15.0625C106.268 15.1458 106.104 15.263 105.984 15.4141C105.865 15.5651 105.805 15.7448 105.805 15.9531H103.734C103.734 15.4219 103.885 14.9661 104.188 14.5859C104.495 14.2057 104.904 13.9141 105.414 13.7109C105.924 13.5026 106.484 13.3984 107.094 13.3984C107.62 13.3984 108.094 13.4531 108.516 13.5625C108.938 13.6667 109.297 13.8229 109.594 14.0312C109.891 14.2396 110.12 14.4974 110.281 14.8047C110.443 15.1068 110.523 15.4583 110.523 15.8594C110.523 16.1458 110.456 16.4167 110.32 16.6719C110.185 16.9271 109.99 17.1536 109.734 17.3516C109.479 17.5443 109.169 17.6953 108.805 17.8047C108.445 17.9141 108.039 17.9688 107.586 17.9688ZM105.938 17.4062H107.586C108.091 17.4062 108.534 17.4557 108.914 17.5547C109.299 17.6484 109.622 17.7891 109.883 17.9766C110.143 18.1641 110.339 18.3958 110.469 18.6719C110.604 18.9427 110.672 19.2552 110.672 19.6094C110.672 20.0104 110.583 20.3698 110.406 20.6875C110.234 21 109.99 21.2656 109.672 21.4844C109.354 21.7031 108.977 21.8698 108.539 21.9844C108.102 22.099 107.62 22.1562 107.094 22.1562C106.526 22.1562 105.974 22.0625 105.438 21.875C104.906 21.6875 104.466 21.3984 104.117 21.0078C103.773 20.6172 103.602 20.1146 103.602 19.5H105.672C105.672 19.6979 105.732 19.8828 105.852 20.0547C105.971 20.2266 106.143 20.3646 106.367 20.4688C106.596 20.5677 106.872 20.6172 107.195 20.6172C107.523 20.6172 107.792 20.5651 108 20.4609C108.208 20.3568 108.359 20.2188 108.453 20.0469C108.552 19.8698 108.602 19.6849 108.602 19.4922C108.602 19.2266 108.549 19.013 108.445 18.8516C108.346 18.6849 108.19 18.5625 107.977 18.4844C107.768 18.4062 107.508 18.3672 107.195 18.3672H105.938V17.4062ZM116.82 20.2031V16.3047C116.82 16.0182 116.771 15.7708 116.672 15.5625C116.573 15.3542 116.422 15.1927 116.219 15.0781C116.016 14.9635 115.758 14.9062 115.445 14.9062C115.169 14.9062 114.927 14.9531 114.719 15.0469C114.516 15.1406 114.359 15.2734 114.25 15.4453C114.141 15.612 114.086 15.8047 114.086 16.0234H112.016C112.016 15.6745 112.099 15.3438 112.266 15.0312C112.432 14.7135 112.669 14.4323 112.977 14.1875C113.289 13.9375 113.661 13.7422 114.094 13.6016C114.531 13.4609 115.021 13.3906 115.562 13.3906C116.203 13.3906 116.773 13.5 117.273 13.7188C117.779 13.9323 118.174 14.2552 118.461 14.6875C118.753 15.1198 118.898 15.6641 118.898 16.3203V20.0078C118.898 20.4297 118.924 20.7917 118.977 21.0938C119.034 21.3906 119.117 21.6484 119.227 21.8672V22H117.125C117.026 21.7865 116.951 21.5156 116.898 21.1875C116.846 20.8542 116.82 20.526 116.82 20.2031ZM117.109 16.8516L117.125 18.0781H115.82C115.497 18.0781 115.214 18.112 114.969 18.1797C114.724 18.2422 114.523 18.3359 114.367 18.4609C114.211 18.5807 114.094 18.7266 114.016 18.8984C113.938 19.0651 113.898 19.2552 113.898 19.4688C113.898 19.6771 113.945 19.8646 114.039 20.0312C114.138 20.1979 114.279 20.3307 114.461 20.4297C114.648 20.5234 114.867 20.5703 115.117 20.5703C115.482 20.5703 115.799 20.4974 116.07 20.3516C116.341 20.2005 116.552 20.0182 116.703 19.8047C116.854 19.5911 116.935 19.388 116.945 19.1953L117.539 20.0859C117.466 20.2995 117.357 20.526 117.211 20.7656C117.065 21.0052 116.878 21.2292 116.648 21.4375C116.419 21.6458 116.143 21.8177 115.82 21.9531C115.497 22.0885 115.122 22.1562 114.695 22.1562C114.148 22.1562 113.659 22.0469 113.227 21.8281C112.794 21.6094 112.453 21.3099 112.203 20.9297C111.953 20.5495 111.828 20.1172 111.828 19.6328C111.828 19.1849 111.911 18.7891 112.078 18.4453C112.245 18.1016 112.492 17.8125 112.82 17.5781C113.148 17.3385 113.555 17.1589 114.039 17.0391C114.529 16.9141 115.089 16.8516 115.719 16.8516H117.109ZM122.555 17.8281H124.672L122.297 22H120.18L122.555 17.8281ZM123.992 13.5469H127.664V22H125.602V15.1562H123.992C123.664 15.1562 123.391 15.2161 123.172 15.3359C122.958 15.4557 122.799 15.6094 122.695 15.7969C122.591 15.9792 122.539 16.1667 122.539 16.3594C122.539 16.5469 122.589 16.7292 122.688 16.9062C122.786 17.0833 122.938 17.2292 123.141 17.3438C123.349 17.4583 123.609 17.5156 123.922 17.5156H126.336V18.9688H123.922C123.385 18.9688 122.904 18.9036 122.477 18.7734C122.055 18.638 121.693 18.4505 121.391 18.2109C121.094 17.9714 120.867 17.6901 120.711 17.3672C120.555 17.0391 120.477 16.6823 120.477 16.2969C120.477 15.901 120.555 15.5365 120.711 15.2031C120.872 14.8698 121.104 14.5781 121.406 14.3281C121.714 14.0781 122.083 13.8854 122.516 13.75C122.953 13.6146 123.445 13.5469 123.992 13.5469ZM133.836 18.4219H131.156L131.141 17.0234H133.344C133.672 17.0234 133.94 16.9896 134.148 16.9219C134.357 16.8542 134.51 16.7526 134.609 16.6172C134.714 16.4818 134.766 16.3177 134.766 16.125C134.766 15.9583 134.734 15.8151 134.672 15.6953C134.609 15.5703 134.516 15.4688 134.391 15.3906C134.271 15.3125 134.117 15.2552 133.93 15.2188C133.747 15.1771 133.534 15.1562 133.289 15.1562H131.891V22H129.82V13.5469H133.289C133.836 13.5469 134.328 13.5964 134.766 13.6953C135.203 13.7891 135.576 13.9323 135.883 14.125C136.19 14.3177 136.424 14.5625 136.586 14.8594C136.753 15.151 136.836 15.4948 136.836 15.8906C136.836 16.151 136.779 16.3958 136.664 16.625C136.549 16.8542 136.38 17.0573 136.156 17.2344C135.932 17.4115 135.656 17.5573 135.328 17.6719C135 17.7812 134.625 17.849 134.203 17.875L133.836 18.4219ZM133.836 22H130.602L131.367 20.3906H133.836C134.138 20.3906 134.388 20.3542 134.586 20.2812C134.784 20.2031 134.93 20.0911 135.023 19.9453C135.122 19.7995 135.172 19.6224 135.172 19.4141C135.172 19.2109 135.125 19.0365 135.031 18.8906C134.943 18.7396 134.799 18.625 134.602 18.5469C134.409 18.4635 134.154 18.4219 133.836 18.4219H131.703L131.719 17.0234H134.195L134.742 17.5781C135.305 17.6146 135.771 17.7292 136.141 17.9219C136.51 18.1094 136.786 18.349 136.969 18.6406C137.151 18.9271 137.242 19.2422 137.242 19.5859C137.242 19.987 137.167 20.3385 137.016 20.6406C136.865 20.9427 136.643 21.1953 136.352 21.3984C136.06 21.5964 135.703 21.7474 135.281 21.8516C134.859 21.9505 134.378 22 133.836 22ZM140.945 13.5469V22H138.883V13.5469H140.945ZM146.453 13.5469L142.727 18.7344H140.531L140.273 16.8438H141.797L143.852 13.5469H146.453ZM143.977 22L141.664 18.375L143.383 17.2969L146.719 22H143.977ZM150.141 21.0625L152.406 13.5469H154.617L151.227 23.2812C151.148 23.4896 151.047 23.7161 150.922 23.9609C150.802 24.2057 150.641 24.4375 150.438 24.6562C150.234 24.8802 149.979 25.0625 149.672 25.2031C149.37 25.3438 149.003 25.4141 148.57 25.4141C148.383 25.4141 148.216 25.401 148.07 25.375C147.924 25.349 147.771 25.3151 147.609 25.2734V23.7266C147.661 23.7318 147.721 23.7344 147.789 23.7344C147.862 23.7396 147.924 23.7422 147.977 23.7422C148.279 23.7422 148.529 23.7057 148.727 23.6328C148.924 23.5651 149.083 23.4531 149.203 23.2969C149.328 23.1458 149.432 22.9479 149.516 22.7031L150.141 21.0625ZM149.023 13.5469L150.938 19.7734L151.273 21.9531L149.852 22.2109L146.797 13.5469H149.023Z" fill="#EBEBEB"/>
<rect x="1" y="1" width="182" height="33" rx="16.5" stroke="white" stroke-width="2"/>
</g>
<defs>
<filter id="filter0_b_0_1" x="-1591" y="-39" width="1952" height="114" filterUnits="userSpaceOnUse" color-interpolation-filters="sRGB">
<feFlood flood-opacity="0" result="BackgroundImageFix"/>
<feGaussianBlur in="BackgroundImageFix" stdDeviation="8"/>
<feComposite in2="SourceAlpha" operator="in" result="effect1_backgroundBlur_0_1"/>
<feBlend mode="normal" in="SourceGraphic" in2="effect1_backgroundBlur_0_1" result="shape"/>
</filter>
<clipPath id="clip0_0_1">
<rect width="1920" height="7944" fill="white" transform="translate(-1575 -23)"/>
</clipPath>
</defs>
</svg>
