<svg width="494" height="216" viewBox="0 0 494 216" fill="none" xmlns="http://www.w3.org/2000/svg">
<path d="M27.5696 171.985L27.5548 171.953L27.5355 171.923C25.8972 169.362 25.7779 166.395 27.167 163.032C28.5594 159.661 31.4522 155.939 35.7493 151.936C44.3402 143.933 58.4409 134.904 76.9692 125.414C114.017 106.437 168.661 85.6704 232.023 67.6202L232.027 67.6191C293.599 49.5908 349.611 38.2222 391.479 34.0954C412.418 32.0316 429.792 31.7819 442.545 33.4049C448.923 34.2167 454.114 35.4932 458.008 37.2264C461.9 38.9589 464.445 41.1232 465.634 43.6971C466.817 46.2587 466.542 49.2461 464.795 52.6355C463.049 56.0241 459.858 59.7578 455.329 63.7656C446.274 71.7789 431.954 80.8131 413.443 90.3033C376.429 109.28 322.748 130.035 261.177 148.063C199.605 166.091 143.593 177.46 101.724 181.587C80.7857 183.651 63.4117 183.9 50.6588 182.277C44.2809 181.465 39.0898 180.189 35.1958 178.456C31.3036 176.723 28.7586 174.559 27.5696 171.985Z" stroke="#41414F"/>
<path d="M68.3826 160.029L68.3679 159.997L68.3486 159.967C67.0272 157.899 66.921 155.497 68.0434 152.761C69.1692 150.016 71.516 146.979 75.0132 143.709C82.0044 137.172 93.4906 129.796 108.595 122.044C138.795 106.544 183.353 89.5921 235.032 74.8719L235.036 74.8709C285.254 60.167 330.941 50.9114 365.095 47.5715C382.177 45.9012 396.346 45.7134 406.744 47.0525C411.945 47.7223 416.171 48.7702 419.337 50.1867C422.502 51.6024 424.557 53.3618 425.518 55.4415C426.473 57.5089 426.261 59.9293 424.846 62.6915C423.432 65.4528 420.841 68.4997 417.154 71.774C409.784 78.3203 398.117 85.7004 383.027 93.4526C352.854 108.953 309.082 125.896 258.865 140.6C208.647 155.304 162.959 164.559 128.805 167.899C111.723 169.569 97.5541 169.757 87.1561 168.418C81.9557 167.748 77.7294 166.7 74.5631 165.284C71.3987 163.868 69.3433 162.109 68.3826 160.029Z" stroke="#41414F"/>
<path d="M114.21 146.605L114.195 146.573L114.175 146.543C113.228 145.062 113.146 143.331 113.974 141.33C114.805 139.322 116.538 137.089 119.131 134.676C124.315 129.852 132.834 124.399 144.043 118.66C166.453 107.188 199.514 94.6264 237.854 83.704L237.857 83.703C275.114 72.7942 308.999 65.9139 334.319 63.413C346.984 62.1621 357.479 62.0096 365.171 62.9855C369.018 63.4736 372.134 64.2404 374.459 65.2742C376.783 66.3073 378.267 67.5824 378.956 69.0734C379.639 70.5522 379.492 72.3021 378.446 74.3274C377.401 76.3516 375.486 78.5942 372.752 81.0117C367.285 85.8442 358.632 91.301 347.433 97.0394C325.043 108.512 292.565 121.067 255.308 131.975C218.052 142.884 184.167 149.764 158.846 152.265C146.182 153.516 135.687 153.669 127.995 152.693C124.147 152.205 121.032 151.438 118.706 150.404C116.382 149.371 114.898 148.096 114.21 146.605Z" stroke="#41414F"/>
<path d="M152.874 135.279L152.86 135.247L152.84 135.216C152.208 134.232 152.146 133.065 152.729 131.684C153.314 130.295 154.534 128.738 156.373 127.044C160.046 123.659 166.082 119.82 174.032 115.771C189.925 107.678 213.361 98.7963 240.534 91.053L240.537 91.052C266.943 83.3204 290.944 78.4241 308.866 76.6179C317.831 75.7144 325.248 75.5871 330.672 76.2541C333.386 76.5878 335.57 77.1167 337.191 77.8277C338.81 78.5381 339.813 79.4049 340.273 80.3992C340.726 81.381 340.632 82.5662 339.895 83.9723C339.158 85.377 337.807 86.9437 335.869 88.6415C331.995 92.0346 325.862 95.8767 317.919 99.9255C302.04 108.019 279.015 116.895 252.61 124.626C226.204 132.358 202.203 137.254 184.281 139.06C175.316 139.964 167.899 140.091 162.475 139.424C159.761 139.09 157.577 138.561 155.956 137.85C154.337 137.14 153.334 136.273 152.874 135.279Z" stroke="#41414F"/>
</svg>
