<svg width="54" height="54" viewBox="0 0 54 54" fill="none" xmlns="http://www.w3.org/2000/svg">
<rect width="54" height="54" fill="#F5F5F5"/>
<g clip-path="url(#clip0_0_1)">
<rect width="1920" height="7944" transform="translate(-161 -14)" fill="#111223"/>
<g filter="url(#filter0_b_0_1)">
<mask id="path-1-inside-1_0_1" fill="white">
<path d="M-161 -14H1759V68H-161V-14Z"/>
</mask>
<path d="M-161 -14H1759V68H-161V-14Z" fill="#111223"/>
<path d="M1759 67H-161V69H1759V67Z" fill="#595959" mask="url(#path-1-inside-1_0_1)"/>
</g>
<circle cx="27" cy="27" r="26.5" stroke="white"/>
<path d="M14.83 21.7593C14.8613 21.7957 14.8861 21.8229 14.9092 21.8516C15.0734 22.0563 15.2812 22.1861 15.5461 22.2056C15.8344 22.2269 16.098 22.3232 16.3527 22.4514C16.3938 22.4721 16.4351 22.4923 16.4916 22.5203C16.487 22.4832 16.4895 22.4592 16.4808 22.4402C16.4057 22.2758 16.3108 22.1244 16.1771 22.0004C16.0855 21.9155 15.9792 21.8545 15.8588 21.8222C15.5567 21.7411 15.31 21.5729 15.1087 21.3387C14.9982 21.2101 14.9008 21.0702 14.7983 20.9348C14.785 20.9173 14.7769 20.8957 14.7611 20.8662C14.8229 20.8497 14.8732 20.8606 14.9226 20.8648C15.0825 20.8784 15.2426 20.891 15.4021 20.9083C15.5925 20.9291 15.7783 20.8891 15.9658 20.8719C16.0596 20.8633 16.1533 20.8533 16.2562 20.843C16.2603 20.8741 16.268 20.9005 16.2662 20.9263C16.259 21.0334 16.2999 21.1091 16.4023 21.1488C16.4197 21.1556 16.4357 21.166 16.4611 21.1793C16.4028 21.2541 16.3274 21.2978 16.2466 21.3318C16.1685 21.3647 16.0878 21.3916 16.0083 21.4215C15.9597 21.4398 15.9142 21.462 15.8945 21.5147C15.9316 21.5613 15.9787 21.5623 16.0253 21.5651C16.162 21.5735 16.2985 21.5867 16.4353 21.5896C16.5783 21.5927 16.6605 21.6602 16.7036 21.7949C16.7572 21.9623 16.8081 22.128 16.7812 22.3074C16.7703 22.3804 16.7949 22.4483 16.8339 22.509C16.9451 22.6823 16.9843 22.8736 16.979 23.0761C16.9759 23.1941 16.9698 23.312 16.9652 23.4299C16.9569 23.6373 16.9494 23.8448 16.9404 24.0522C16.9327 24.2318 16.9952 24.3955 17.0549 24.5595C17.0742 24.6127 17.1127 24.6548 17.1622 24.6967C17.1923 24.6499 17.2198 24.6071 17.2524 24.5566C17.2694 24.5667 17.2862 24.5766 17.3031 24.5865C17.3072 24.5787 17.3143 24.571 17.3149 24.5628C17.3234 24.4594 17.3331 24.3559 17.3383 24.2523C17.3426 24.1675 17.3457 24.0822 17.3419 23.9975C17.3256 23.6411 17.3738 23.2912 17.4412 22.9428C17.52 22.5352 17.5986 22.1275 17.6737 21.7192C17.7012 21.5697 17.6967 21.417 17.674 21.2676C17.6208 20.9166 17.6064 20.5635 17.594 20.2095C17.5715 19.5725 17.5612 18.9355 17.578 18.2981C17.5794 18.2415 17.5842 18.1848 17.5827 18.1284C17.5804 18.043 17.5846 17.964 17.6324 17.885C17.6646 17.8318 17.6668 17.7591 17.677 17.6943C17.6843 17.648 17.6813 17.6001 17.6852 17.5531C17.6932 17.4567 17.7266 17.3719 17.7888 17.2951C17.994 17.0419 18.2015 16.7918 18.4386 16.5664C18.568 16.4433 18.6831 16.304 18.7958 16.1648C18.8636 16.0811 18.9167 15.9849 18.9717 15.8915C19.0077 15.8304 19.0285 15.763 19.0104 15.6876C18.9373 15.654 18.8636 15.6536 18.789 15.6715C18.6973 15.6935 18.6058 15.7166 18.5142 15.739C18.4923 15.7443 18.4702 15.7487 18.4374 15.7559C18.4507 15.7328 18.4553 15.7195 18.4641 15.7101C18.7243 15.4365 18.9856 15.164 19.2444 14.8893C19.2826 14.8488 19.3138 14.8 19.3405 14.7509C19.3631 14.7091 19.3371 14.6635 19.2894 14.654C19.2046 14.6371 19.1195 14.6459 19.0364 14.6644C18.8429 14.7075 18.6504 14.7544 18.4737 14.8494C18.4542 14.8599 18.4325 14.8664 18.3965 14.8811C18.4077 14.8546 18.4096 14.842 18.4167 14.834C18.5099 14.731 18.5742 14.6111 18.6259 14.4833C18.6719 14.3696 18.7226 14.2577 18.7663 14.1433C18.781 14.105 18.7855 14.0612 18.7865 14.0198C18.7876 13.9777 18.7831 13.9343 18.7734 13.8934C18.7493 13.7917 18.7686 13.6995 18.813 13.606C18.9771 13.2609 19.1295 12.9101 19.3001 12.5683C19.5841 11.999 19.9955 11.5394 20.5249 11.1841C20.886 10.9418 21.2599 10.7218 21.645 10.5207C21.8608 10.4081 22.0932 10.3479 22.3338 10.3183C22.6962 10.2737 23.0603 10.2816 23.4232 10.2974C23.8373 10.3154 24.2336 10.4222 24.6128 10.5884C24.7596 10.6527 24.9041 10.7229 25.0459 10.7977C25.4445 11.0081 25.8665 11.103 26.3164 11.0609C26.6143 11.033 26.889 11.0984 27.141 11.2567C27.3009 11.357 27.4586 11.461 27.6142 11.5677C27.843 11.7246 28.0889 11.8376 28.3643 11.8837C28.6536 11.9322 28.9378 11.9084 29.2193 11.8322C29.3976 11.7839 29.5669 11.7126 29.7337 11.6342C29.8532 11.5781 29.9725 11.5215 30.0923 11.4658C30.1122 11.4566 30.1338 11.4512 30.1636 11.441C30.1598 11.6011 30.1098 11.7457 30.1108 11.8919C30.1439 11.9101 30.1618 11.8948 30.1777 11.8768C30.2463 11.7987 30.3139 11.7198 30.3832 11.6425C30.4009 11.6228 30.4238 11.6078 30.4435 11.5913C30.4897 11.6267 30.4839 11.6716 30.4892 11.7122C30.4984 11.7822 30.5033 11.853 30.5145 11.9228C30.5486 12.1351 30.6475 12.3143 30.8003 12.464C30.8441 12.5068 30.892 12.5455 30.9393 12.5847C31.1666 12.7731 31.3547 12.9961 31.5184 13.2406C31.5258 13.2518 31.5299 13.2653 31.5385 13.2843C31.5141 13.2902 31.4929 13.2954 31.4711 13.3008C31.4742 13.3082 31.4751 13.3184 31.4806 13.3223C31.6279 13.4289 31.7439 13.5646 31.848 13.7121C32.3022 14.3564 32.7552 15.0016 33.2302 15.6311C33.423 15.8866 33.559 16.171 33.6156 16.4886C33.6755 16.8247 33.6629 17.1561 33.5368 17.4776C33.4541 17.6887 33.3744 17.901 33.3371 18.1256C33.3085 18.2977 33.283 18.4703 33.3168 18.6461C33.3439 18.787 33.4089 18.9012 33.5202 18.9916C33.6832 19.124 33.6849 19.1334 33.601 19.323C33.5721 19.3883 33.5485 19.4543 33.5499 19.5271C33.5528 19.6717 33.4837 19.7789 33.373 19.8642C33.2123 19.9881 33.0294 20.0635 32.8304 20.0911C32.6484 20.1164 32.4643 20.1267 32.281 20.1425C32.2246 20.1473 32.1678 20.1479 32.1112 20.1508C32.0138 20.1559 31.9269 20.188 31.8526 20.2525C31.8277 20.2741 31.802 20.295 31.7766 20.3162C31.5968 20.4661 31.3968 20.5725 31.1694 20.6386C30.7528 20.7596 30.3403 20.8944 29.927 21.0268C29.7157 21.0945 29.5109 21.1797 29.3129 21.2804C29.1605 21.3579 29.0219 21.4549 28.8994 21.5751C28.6674 21.8029 28.5455 22.0821 28.5037 22.4013C28.467 22.6815 28.5003 22.9579 28.5504 23.232C28.6265 23.6497 28.7113 24.0657 28.7943 24.4821C28.8667 24.845 28.8877 25.2115 28.8826 25.5807C28.8784 25.8742 28.8346 26.1636 28.8036 26.4544C28.7653 26.8149 28.7822 27.172 28.9069 27.5163C28.9484 27.631 29.0079 27.7393 29.0613 27.8495C29.1025 27.9344 29.1501 28.0161 29.1895 28.1017C29.3373 28.4231 29.3276 28.7428 29.1665 29.0563C29.0582 29.267 28.9261 29.4624 28.7642 29.6363C28.6671 29.7406 28.5579 29.83 28.4364 29.9047C28.3595 29.9519 28.2785 29.9882 28.1904 30.01C28.1115 30.0295 28.0434 30.0685 27.9908 30.139C28.0384 30.2064 28.0936 30.2525 28.1742 30.2645C28.2253 30.2722 28.2759 30.2834 28.3449 30.2964C28.3099 30.3179 28.2895 30.3333 28.2668 30.3439C28.0758 30.4331 27.9362 30.5761 27.8325 30.7566C27.757 30.888 27.7025 31.0283 27.6517 31.1814C27.6824 31.1888 27.7128 31.1877 27.7312 31.202C27.8175 31.2694 27.8884 31.234 27.9605 31.1777C28.0164 31.1341 28.0766 31.0975 28.153 31.0875C28.2026 31.151 28.2123 31.2244 28.2061 31.3003C28.2004 31.3708 28.1879 31.4408 28.1808 31.5112C28.1719 31.6004 28.1629 31.6897 28.1591 31.7791C28.1571 31.8258 28.1605 31.8743 28.1713 31.9196C28.2005 32.0434 28.3095 32.0956 28.422 32.0366C28.5234 31.9833 28.5925 31.8999 28.5958 31.7798C28.5977 31.7095 28.59 31.6385 28.5818 31.5684C28.5701 31.47 28.5521 31.3725 28.5405 31.2742C28.5322 31.2039 28.5283 31.133 28.5564 31.0647C28.5901 30.9829 28.6504 30.9626 28.726 31.0095C28.7419 31.0194 28.7566 31.0316 28.7706 31.0442C28.8583 31.1233 28.948 31.2003 29.032 31.283C29.0786 31.3288 29.1227 31.3803 29.1557 31.4365C29.2473 31.5926 29.2495 31.7577 29.1476 31.9053C29.0013 32.1175 28.8252 32.3008 28.5638 32.3742C28.5186 32.3869 28.4733 32.4014 28.4301 32.42C28.3492 32.4548 28.3007 32.5169 28.3029 32.6066C28.3048 32.6864 28.3161 32.766 28.3236 32.8456C28.3284 32.8972 28.3359 32.9485 28.3384 33.0001C28.3403 33.0401 28.3212 33.0728 28.2895 33.0975C28.2025 33.1651 28.0748 33.1656 27.9871 33.0973C27.965 33.0801 27.9459 33.059 27.9179 33.0326C27.8793 33.0572 27.8399 33.081 27.8017 33.1068C27.7509 33.1413 27.7026 33.1794 27.6507 33.212C27.5783 33.2574 27.5282 33.243 27.4906 33.1653C27.464 33.1104 27.4438 33.0526 27.4158 32.9841C27.3771 33.0283 27.3445 33.0656 27.3084 33.1069C27.288 33.0849 27.27 33.0656 27.2486 33.0426C27.2047 33.0515 27.1801 33.0881 27.156 33.1202C27.0814 33.2198 26.9912 33.2313 26.8806 33.1863C26.7802 33.1456 26.6751 33.1167 26.5737 33.0783C26.5167 33.0567 26.4597 33.0314 26.4084 32.9989C26.2947 32.9268 26.2955 32.8534 26.4086 32.7862C26.4489 32.7622 26.493 32.7437 26.537 32.7272C26.714 32.6609 26.8971 32.6545 27.0814 32.6819C27.2644 32.7091 27.4474 32.7197 27.6318 32.7043C27.6553 32.7023 27.68 32.7043 27.7022 32.6979C27.8299 32.661 27.8993 32.5735 27.7953 32.4483C27.7143 32.3509 27.603 32.315 27.4822 32.3058C27.4165 32.3008 27.35 32.3036 27.284 32.3061C26.8801 32.3218 26.4882 32.3926 26.1111 32.5446C25.7824 32.6771 25.4401 32.768 25.0963 32.8519C24.9145 32.8963 24.74 32.8693 24.578 32.7727C24.5456 32.7534 24.5149 32.7307 24.4811 32.7143C24.3694 32.6601 24.2483 32.6788 24.1672 32.7605C24.0845 32.8439 24.0591 32.9854 24.1129 33.0886C24.1274 33.1164 24.1529 33.1403 24.1778 33.1603C24.2094 33.1856 24.2471 33.1904 24.2834 33.1674C24.418 33.0822 24.5673 33.0748 24.7203 33.0807C24.7956 33.0836 24.8712 33.0792 24.9467 33.0774C25.126 33.0733 25.3056 33.0609 25.4846 33.0664C25.7943 33.0757 26.0908 33.1459 26.3729 33.2786C26.6048 33.3877 26.8526 33.4482 27.1042 33.4912C27.2297 33.5127 27.3563 33.5306 27.4832 33.5403C27.6157 33.5503 27.6918 33.614 27.7163 33.7435C27.7241 33.7852 27.734 33.8273 27.7839 33.8544C27.8559 33.8436 27.9044 33.7771 27.9768 33.7599C27.995 33.6879 28.011 33.6245 28.0293 33.5523C28.062 33.5437 28.0969 33.5313 28.1329 33.5257C28.1934 33.5163 28.2547 33.5112 28.3158 33.5042C28.4916 33.4842 28.6439 33.5258 28.7555 33.6729C28.7668 33.6877 28.775 33.705 28.79 33.7303C28.8189 33.6854 28.8357 33.6595 28.8587 33.6237C28.9314 33.6973 28.9994 33.7661 29.0657 33.8332C29.1264 33.826 29.1581 33.7923 29.1807 33.7497C29.1982 33.7164 29.2091 33.6797 29.2256 33.6459C29.2417 33.6128 29.2611 33.5815 29.2768 33.5534C29.3194 33.5547 29.3191 33.5814 29.3222 33.603C29.3349 33.6914 29.3463 33.78 29.3575 33.8638C29.3954 33.8805 29.4073 33.8594 29.4193 33.839C29.4405 33.8025 29.4614 33.7658 29.4848 33.7251C29.6031 33.7144 29.7135 33.6753 29.8198 33.6228C29.8366 33.6145 29.8545 33.6075 29.8727 33.6034C29.9051 33.5963 29.9454 33.587 29.9621 33.6215C29.9749 33.648 29.9766 33.6877 29.9665 33.7155C29.9542 33.7493 29.9267 33.7787 29.902 33.8068C29.7585 33.9698 29.613 34.131 29.4698 34.2944C29.3958 34.379 29.3252 34.4666 29.2509 34.5556C29.188 34.509 29.1824 34.4224 29.1202 34.3663C29.0908 34.3908 29.0971 34.4263 29.0876 34.4539C29.0771 34.4844 29.0713 34.5164 29.06 34.5614C29.0148 34.5167 28.9769 34.4791 28.9411 34.4437C28.894 34.459 28.8988 34.4994 28.8873 34.5277C28.8147 34.7063 28.6834 34.8065 28.4928 34.8284C28.4366 34.8348 28.3797 34.8398 28.3235 34.8378C27.9696 34.8255 27.6158 34.8119 27.2621 34.7967C27.1206 34.7907 26.9794 34.7791 26.838 34.771C26.6412 34.7597 26.4582 34.7 26.286 34.6078C26.1989 34.5611 26.1158 34.5064 26.0335 34.4513C25.9814 34.4164 25.9263 34.392 25.8653 34.3807C25.809 34.3703 25.7785 34.3877 25.7513 34.4407C25.7198 34.5023 25.7148 34.5682 25.7268 34.634C25.7683 34.862 25.8856 35.035 26.1008 35.1333C26.2279 35.1915 26.3636 35.2085 26.5015 35.2069C26.7894 35.2035 27.0773 35.1975 27.3652 35.1924C27.5211 35.1896 27.6768 35.1863 27.8326 35.1839C27.8751 35.1832 27.9176 35.1854 27.9601 35.1848C28.0702 35.1834 28.1471 35.2773 28.1438 35.3775C28.1424 35.4232 28.1331 35.4728 28.1121 35.5127C28.0796 35.5747 28.0416 35.6372 27.9928 35.6864C27.8212 35.8594 27.7181 36.0679 27.6573 36.3001C27.6275 36.4141 27.6064 36.5308 27.5703 36.6428C27.5328 36.7592 27.4891 36.8746 27.4357 36.9845C27.2962 37.272 27.0739 37.4751 26.7813 37.6031C26.6026 37.6812 26.415 37.7262 26.2236 37.7571C25.8635 37.815 25.5085 37.7962 25.1602 37.6831C24.9293 37.6081 24.7177 37.4955 24.5217 37.3528C23.8491 36.863 23.2563 36.2918 22.7611 35.6219C22.6461 35.4662 22.5345 35.3079 22.4275 35.1467C22.2045 34.8107 21.9477 34.5035 21.6525 34.2291C21.2755 33.8788 20.895 33.5322 20.5181 33.1819C20.3729 33.047 20.2304 32.909 20.092 32.7671C19.9566 32.6282 19.8373 32.4755 19.7346 32.3106C19.6292 32.1416 19.5449 31.9629 19.4912 31.7705C19.4814 31.7351 19.4694 31.7003 19.4589 31.6666C19.4233 31.6639 19.4261 31.6872 19.4289 31.7035C19.463 31.9051 19.5248 32.0971 19.6245 32.2766C19.74 32.4846 19.8826 32.6726 20.0522 32.8381C20.282 33.0622 20.5179 33.2801 20.7515 33.5002C21.0952 33.8239 21.4413 34.145 21.7823 34.4714C22.0188 34.6976 22.2179 34.9534 22.3827 35.238C22.6662 35.7278 23.0303 36.1549 23.4381 36.5451C23.8069 36.8982 24.198 37.2248 24.6152 37.5198C24.6306 37.5307 24.6458 37.5419 24.6605 37.5537C25.1256 37.9275 25.6579 38.1617 26.234 38.2983C26.8101 38.4348 27.3954 38.506 27.9881 38.5009C28.8277 38.4937 29.6242 38.3073 30.3723 37.9205C30.6869 37.7579 30.9933 37.5811 31.3004 37.3956C31.2945 37.3786 31.2891 37.3629 31.2772 37.3284C31.2896 37.3204 31.3104 37.3091 31.3289 37.2946C31.3884 37.2482 31.4458 37.1988 31.5062 37.1536C31.9465 36.8229 32.2942 36.4098 32.585 35.9456C32.8207 35.5693 33.0281 35.177 33.2331 34.7837C33.4926 34.2857 33.7477 33.7855 34.0065 33.2872C34.0804 33.1448 34.1598 33.0053 34.2381 32.8652C34.2551 32.8348 34.2777 32.8075 34.3135 32.7863C34.2982 32.8294 34.2843 32.8731 34.2676 32.9156C34.1138 33.3066 33.9436 33.6903 33.7607 34.0685C33.4172 34.7789 33.0273 35.4633 32.6044 36.1293C32.4544 36.3656 32.2731 36.5764 32.0832 36.7808C31.7395 37.151 31.3954 37.5209 31.0543 37.8936C30.911 38.0503 30.7718 38.2111 30.6366 38.375C30.4371 38.6169 30.2112 38.8306 29.9588 39.0153C29.7875 39.1406 29.6123 39.2613 29.4331 39.375C29.1458 39.5573 28.8707 39.7564 28.596 39.9567C28.4809 40.0407 28.3994 40.1475 28.3571 40.2816C28.3173 40.4073 28.2836 40.5351 28.2519 40.6632C28.2156 40.8102 28.1747 40.9555 28.1011 41.0887C28.0692 41.1464 28.035 41.2038 27.9943 41.2553C27.9009 41.3733 27.7838 41.4183 27.6313 41.3772C27.3764 41.3085 27.1191 41.2481 26.8625 41.1855C26.803 41.1709 26.7426 41.1584 26.6819 41.1508C26.6044 41.1412 26.555 41.1816 26.5457 41.2595C26.5263 41.4235 26.58 41.5566 26.7172 41.6529C26.895 41.7777 27.0785 41.8929 27.2733 41.9904C27.3487 42.0281 27.4233 42.071 27.4896 42.1227C27.5942 42.2044 27.6517 42.3165 27.669 42.4493C27.6804 42.5362 27.6628 42.6184 27.6336 42.6987C27.6127 42.7563 27.588 42.8125 27.563 42.8685C27.5107 42.9862 27.4795 43.1082 27.4714 43.2372C27.4625 43.3786 27.4254 43.4217 27.2867 43.4404C27.0858 43.4677 26.8842 43.4891 26.6772 43.4949C26.6275 43.4425 26.5789 43.3915 26.5307 43.3401C25.2085 41.9264 23.8863 40.5125 22.5641 39.0988C21.5772 38.0437 20.5904 36.9885 19.6025 35.9343C19.5464 35.8745 19.5044 35.8102 19.4775 35.7325C19.3664 35.4108 19.2669 35.086 19.2274 34.7467C19.2072 34.5735 19.1931 34.399 19.1876 34.2247C19.1721 33.7293 19.1674 33.2336 19.1489 32.7384C19.1311 32.262 19.1004 31.786 19.0352 31.3133C18.9351 30.5874 18.7797 29.8732 18.5595 29.1744C18.3299 28.4455 18.0926 27.7188 17.7973 27.0129C17.6153 26.5777 17.4413 26.1386 17.2238 25.7193C17.1218 25.5227 17.0053 25.3336 16.894 25.1418C16.8786 25.1153 16.8666 25.0792 16.8232 25.0832C16.7945 25.1182 16.8254 25.1464 16.8371 25.1732C16.9599 25.4543 17.0849 25.7343 17.2091 26.0147C17.224 26.0485 17.2373 26.0831 17.2538 26.1234C17.1245 26.2115 16.9939 26.2152 16.865 26.1453C16.8086 26.1147 16.7615 26.0642 16.716 26.0171C16.6374 25.9357 16.5623 25.8508 16.4875 25.7657C16.4231 25.6924 16.3461 25.6589 16.2415 25.6819C16.2165 25.7745 16.2204 25.8597 16.2907 25.9405C16.4643 26.1398 16.6349 26.3419 16.8045 26.5446C16.9521 26.7211 17.1362 26.7438 17.3427 26.6788C17.3826 26.6662 17.4212 26.6493 17.4684 26.6314C17.4915 26.6765 17.5141 26.717 17.5335 26.759C17.5548 26.8052 17.5731 26.8528 17.5957 26.9064C17.5259 26.9259 17.4656 26.9184 17.4065 26.9121C17.1367 26.8834 16.8949 26.7852 16.6853 26.6119C16.4584 26.4243 16.2556 26.2149 16.0983 25.964C15.8074 25.5001 15.5155 25.037 15.2227 24.5743C15.07 24.3333 14.9565 24.0748 14.8767 23.8017C14.7339 23.3127 14.5839 22.8259 14.4202 22.3434C14.3308 22.0799 14.2456 21.8149 14.1593 21.5503C14.148 21.5155 14.1413 21.4792 14.1327 21.4444C14.1676 21.4298 14.168 21.4543 14.1736 21.4685C14.2392 21.6354 14.302 21.8033 14.3699 21.9692C14.4522 22.1706 14.5517 22.3634 14.6805 22.5398C14.7221 22.5968 14.766 22.6515 14.8435 22.6704C14.8932 22.6155 14.899 22.554 14.8888 22.4855C14.8603 22.2941 14.8345 22.1025 14.8082 21.9109C14.8037 21.8783 14.799 21.8452 14.8002 21.8125C14.8015 21.7977 14.8163 21.7834 14.83 21.7593ZM22.3373 23.995C22.3336 23.9937 22.3301 23.9917 22.3263 23.9914C22.3237 23.9911 22.3209 23.9931 22.3182 23.9941C22.3258 23.9934 22.3334 23.9927 22.3411 23.992C22.3499 24.0021 22.3574 24.0191 22.3677 24.0211C22.4415 24.0351 22.5155 24.0508 22.5901 24.0571C22.8749 24.0809 23.1537 24.0498 23.4249 23.9574C23.5806 23.9044 23.736 23.8507 23.892 23.7988C23.927 23.7872 23.9641 23.782 24.0004 23.774L23.9975 23.7708C23.9838 23.7818 23.9718 23.7964 23.9563 23.8031C23.8699 23.8401 23.7828 23.8754 23.6957 23.9108C23.6698 23.9214 23.6377 23.9231 23.6327 23.9616C23.6747 23.9544 23.717 23.95 23.7578 23.9398C23.9924 23.8817 24.2065 23.7723 24.4227 23.6687C24.4343 23.6631 24.4527 23.6449 24.4509 23.6416C24.4219 23.5875 24.5039 23.5849 24.5009 23.534C24.3833 23.5503 24.2757 23.5836 24.17 23.6184C23.9557 23.6888 23.7424 23.7631 23.5317 23.8437C23.233 23.9581 22.9258 24.0135 22.6061 24.0007C22.5169 23.9971 22.4274 23.9964 22.3373 23.995ZM24.7625 21.2045C24.7767 21.2229 24.783 21.2358 24.7932 21.2438C24.9228 21.346 25.0539 21.4462 25.1824 21.5499C25.2186 21.5791 25.2522 21.6145 25.2775 21.6533C25.2941 21.6786 25.301 21.7156 25.2984 21.7463C25.2964 21.7705 25.2733 21.7928 25.2578 21.819C25.1719 21.8107 25.0925 21.8022 25.0129 21.7955C24.5285 21.7545 24.044 21.7139 23.5596 21.673C23.5107 21.6689 23.4607 21.6678 23.4136 21.6321C23.4488 21.6321 23.4771 21.6321 23.5054 21.6321C23.8501 21.6321 24.1948 21.6324 24.5395 21.6314C24.5693 21.6313 24.6062 21.6446 24.6289 21.5993C24.5003 21.4415 24.3366 21.3369 24.1411 21.2828C23.9526 21.2305 23.7595 21.2232 23.5652 21.2368C23.471 21.2434 23.3767 21.2485 23.2824 21.2533C23.2659 21.2541 23.2491 21.2506 23.232 21.2491C23.236 21.2053 23.2672 21.1986 23.2881 21.183C23.3221 21.1576 23.3598 21.137 23.3926 21.1103C23.405 21.1002 23.4155 21.0774 23.4131 21.0627C23.4108 21.0488 23.3921 21.0304 23.3775 21.0271C23.2711 21.0028 23.1643 20.9882 23.0556 21.0192C22.9922 21.0374 22.9275 21.0513 22.8627 21.0639C22.6638 21.1026 22.4649 21.1416 22.2653 21.1766C22.1632 21.1945 22.0731 21.1572 21.991 21.1067C21.9906 21.0566 22.0255 21.0453 22.0532 21.0299C22.1823 20.958 22.3234 20.9199 22.4658 20.8854C22.5849 20.8565 22.704 20.8273 22.8225 20.7958C22.8413 20.7908 22.8569 20.7731 22.8931 20.7479C22.8289 20.7378 22.7879 20.7282 22.7465 20.7255C22.6712 20.7206 22.5956 20.7198 22.5201 20.7174C22.1943 20.7071 21.8807 20.7633 21.5834 20.8981C21.1881 21.0771 20.7944 21.2594 20.4003 21.4411C20.3812 21.4499 20.3523 21.4526 20.3533 21.4924C20.427 21.5384 20.5067 21.5677 20.6 21.5652C20.7189 21.5619 20.834 21.5434 20.9482 21.5101C21.0657 21.4758 21.1847 21.4455 21.3048 21.4216C21.5928 21.3642 21.8862 21.3586 22.1781 21.3401C22.2487 21.3356 22.3196 21.3326 22.3904 21.3319C22.4533 21.3312 22.4651 21.3525 22.4508 21.4406C22.2813 21.4622 22.1052 21.4415 21.9363 21.4912C21.9579 21.4996 21.9796 21.5022 22.0014 21.5036C22.1662 21.5145 22.3314 21.5223 22.4959 21.5366C22.7128 21.5555 22.9257 21.5955 23.1301 21.6738C23.1558 21.6836 23.1863 21.6863 23.1939 21.7207C23.186 21.7245 23.1787 21.7307 23.1708 21.7317C22.8569 21.7696 22.5432 21.8094 22.229 21.8441C21.7115 21.9013 21.2372 22.0688 20.8204 22.3862C20.6551 22.512 20.4895 22.6375 20.3278 22.7678C20.2658 22.8177 20.213 22.8794 20.158 22.9377C20.1218 22.976 20.0981 23.0207 20.1062 23.074C20.1512 23.1105 20.1957 23.1121 20.2433 23.0961C20.3827 23.0493 20.5191 22.9968 20.6271 22.8916C20.7555 22.7664 20.883 22.6403 21.0112 22.5149C21.0685 22.4589 21.1246 22.4013 21.1846 22.3483C21.3257 22.2238 21.4885 22.1406 21.6746 22.1094C22.0329 22.0494 22.3916 21.9921 22.7502 21.9347C22.7872 21.9288 22.8258 21.9258 22.8629 21.9294C22.8983 21.9329 22.9313 21.9485 22.9453 21.9852C22.9068 22.0222 22.8678 22.0072 22.8319 22.0041C22.6988 21.9927 22.5675 22.0067 22.4379 22.0331C22.147 22.0923 21.9049 22.2413 21.6909 22.443C21.6087 22.5205 21.522 22.5937 21.4329 22.6632C21.2505 22.8054 21.0647 22.9431 20.8814 23.0842C20.8532 23.1059 20.8124 23.1194 20.8094 23.1743C20.8328 23.1717 20.8559 23.1739 20.8752 23.1663C20.9762 23.1269 21.076 23.0844 21.1767 23.0439C21.3539 22.9728 21.5121 22.8717 21.654 22.7446C21.7244 22.6816 21.7941 22.618 21.8655 22.5562C21.8809 22.5429 21.9022 22.5365 21.9232 22.5255C21.9372 22.61 21.9445 22.6855 21.9628 22.7583C22.0587 23.1407 22.2964 23.3966 22.6814 23.4776C23.0609 23.5576 23.3914 23.4464 23.6388 23.1324C23.7948 22.9344 23.8543 22.706 23.8517 22.4577C23.8515 22.4285 23.8294 22.3918 23.8753 22.3689C24.0644 22.5397 24.2417 22.7218 24.4038 22.9188C24.4187 22.9368 24.4317 22.9571 24.4419 22.9781C24.4715 23.0389 24.453 23.0941 24.3891 23.1148C24.3358 23.1321 24.2789 23.1404 24.223 23.1474C23.9796 23.1778 23.758 23.2652 23.5536 23.3987C23.5468 23.4032 23.544 23.4137 23.5339 23.4302C23.5604 23.4286 23.5818 23.4302 23.6018 23.4257C23.6893 23.4061 23.7763 23.3849 23.8634 23.3639C24.0884 23.3097 24.3137 23.2582 24.5473 23.26C24.5753 23.2602 24.6036 23.2549 24.6313 23.2497C24.7002 23.2367 24.756 23.2017 24.7856 23.1375C24.8083 23.0881 24.8428 23.0541 24.8847 23.0214C24.9479 22.972 24.9438 22.9358 24.8783 22.889C24.8706 22.8835 24.8626 22.8784 24.8545 22.8736C24.5968 22.7161 24.339 22.5588 24.0815 22.4012C24.0547 22.3848 24.0292 22.3666 23.9876 22.3391C24.0202 22.3286 24.0385 22.3157 24.0518 22.3197C24.0966 22.3329 24.143 22.3464 24.1828 22.37C24.2901 22.4334 24.3986 22.4865 24.5287 22.4503C24.5768 22.4978 24.6199 22.5412 24.6639 22.5836C24.7148 22.6327 24.7653 22.6823 24.8182 22.7294C24.8865 22.7903 24.9668 22.7991 25.0544 22.7842C25.0763 22.679 25.0564 22.591 24.997 22.5105C24.962 22.463 24.9291 22.414 24.8952 22.3658C24.9265 22.3646 24.9452 22.3754 24.9613 22.3892C25.0152 22.4351 25.0676 22.4826 25.1218 22.5281C25.1371 22.5409 25.1556 22.5429 25.1743 22.5061C24.9782 22.289 24.7633 22.0806 24.5649 21.8547C24.5816 21.8454 24.5895 21.837 24.5966 21.8377C24.6812 21.8449 24.7657 21.8542 24.8503 21.8615C25.0571 21.8795 25.2639 21.8985 25.471 21.9133C25.5269 21.9172 25.5843 21.9111 25.6402 21.9033C25.6929 21.8959 25.7387 21.8688 25.7715 21.8262C25.7967 21.7934 25.8228 21.7584 25.8046 21.7014C25.7878 21.7178 25.7768 21.7303 25.764 21.7408C25.7508 21.7516 25.736 21.7605 25.7195 21.7718C25.6776 21.723 25.6426 21.6786 25.6038 21.6378C25.5356 21.566 25.4685 21.4926 25.3949 21.4267C25.2178 21.2682 25.0036 21.212 24.7625 21.2045ZM16.2107 24.4726C16.2034 24.5653 16.2068 24.6545 16.2422 24.7394C16.2847 24.8417 16.3726 24.8985 16.4758 24.8849C16.5665 24.873 16.6474 24.8341 16.7157 24.7727C16.7517 24.7404 16.7722 24.6982 16.7802 24.6497C16.7932 24.5703 16.7994 24.4914 16.7898 24.4104C16.7663 24.2114 16.6851 24.0398 16.5538 23.8905C16.5195 23.8515 16.4823 23.8151 16.4487 23.7756C16.3228 23.6284 16.2823 23.4621 16.3386 23.2743C16.3508 23.2337 16.3592 23.1919 16.3669 23.1503C16.3922 23.0126 16.3639 22.8836 16.2773 22.7764C16.1946 22.6741 16.1005 22.5803 16.006 22.4883C15.9457 22.4296 15.8714 22.4256 15.797 22.468C15.7806 22.4773 15.7639 22.4862 15.7484 22.4969C15.5395 22.6406 15.3631 22.8155 15.2376 23.0375C15.203 23.0988 15.1711 23.1631 15.1487 23.2296C15.1097 23.3455 15.1039 23.4647 15.1788 23.569C15.2667 23.6913 15.3564 23.8139 15.4577 23.9249C15.6021 24.0831 15.7841 24.1782 16.0008 24.2003C16.038 24.2042 16.0751 24.2132 16.111 24.2241C16.171 24.2424 16.2061 24.2844 16.2102 24.3477C16.2129 24.39 16.2107 24.4325 16.2107 24.4726ZM26.93 21.8825C26.9916 21.871 27.0276 21.8321 27.0651 21.7971C27.1948 21.676 27.2874 21.5298 27.3531 21.3656C27.4143 21.2126 27.4326 21.0558 27.3967 20.8943C27.361 20.7334 27.3236 20.5727 27.2864 20.4122C27.2825 20.3954 27.2804 20.3732 27.2529 20.3784C27.2501 20.382 27.2453 20.3852 27.2449 20.3889C27.2215 20.63 27.1191 20.8405 26.9927 21.0417C26.9575 21.0975 26.9208 21.1524 26.8869 21.2091C26.8204 21.32 26.7796 21.44 26.7769 21.5699C26.7743 21.701 26.8293 21.805 26.93 21.8825ZM25.3371 28.5009C25.3195 28.5122 25.3078 28.5154 25.3055 28.5219C25.2947 28.5529 25.2824 28.5841 25.2777 28.6164C25.2348 28.9101 25.3096 29.1701 25.5171 29.3834C25.692 29.5632 25.8982 29.7064 26.1036 29.8489C26.1902 29.9091 26.2469 29.8915 26.3047 29.8038C26.3357 29.7568 26.3617 29.7053 26.3985 29.6633C26.4747 29.5762 26.5618 29.5575 26.6657 29.6081C26.7199 29.6344 26.7696 29.6723 26.8163 29.7111C26.913 29.7914 27.0255 29.8191 27.1461 29.8095C27.2558 29.8008 27.2968 29.7021 27.2316 29.6157C27.2147 29.5934 27.1957 29.5699 27.1725 29.5557C27.1046 29.514 27.0379 29.4657 26.9638 29.4397C26.6682 29.336 26.3815 29.3496 26.1095 29.5205C25.9612 29.6137 25.8731 29.6049 25.7366 29.4947C25.4665 29.2765 25.3223 28.999 25.3369 28.6465C25.3388 28.6002 25.3371 28.5538 25.3371 28.5009ZM21.1659 23.4441C21.2201 23.5291 21.2906 23.5724 21.3689 23.6057C21.4363 23.6343 21.4363 23.634 21.5152 23.6242C21.4078 23.5601 21.3083 23.5004 21.2082 23.4417C21.202 23.4381 21.1912 23.4423 21.1659 23.4441Z" fill="white"/>
<path d="M13.9676 20.3317C13.9706 20.1715 14.0305 20.0526 14.1399 19.9619C14.3416 19.7946 14.6849 19.7065 14.9663 19.9652C15.0425 20.0353 15.1111 20.1138 15.1811 20.1903C15.2193 20.232 15.2536 20.2773 15.2888 20.3217C15.3888 20.4476 15.5137 20.5355 15.6711 20.5743C15.7693 20.5985 15.852 20.653 15.9339 20.7092C15.962 20.7285 15.9651 20.7536 15.9473 20.7922C15.7437 20.8237 15.535 20.8608 15.3222 20.8387C15.1488 20.8206 14.9763 20.793 14.803 20.7731C14.7336 20.765 14.6763 20.7371 14.6283 20.6891C14.5817 20.6423 14.5378 20.5929 14.492 20.5453C14.4363 20.4876 14.3816 20.4287 14.3234 20.3738C14.2372 20.2926 14.1396 20.2612 14.0258 20.3164C14.0134 20.3225 13.9986 20.3237 13.9676 20.3317Z" fill="white"/>
<path d="M31.7643 38.9573C31.7657 39.0328 31.7245 39.0908 31.6839 39.1484C31.5561 39.3297 31.4286 39.5113 31.2989 39.6913C30.4985 40.8028 29.647 41.8744 28.7733 42.9289C28.3874 43.3946 27.9769 43.8377 27.5652 44.28C27.5433 44.3035 27.5185 44.3243 27.4908 44.3503C27.4297 44.3124 27.3917 44.2576 27.3464 44.2113C27.2969 44.1607 27.249 44.1086 27.201 44.0565C27.1571 44.0087 27.114 43.9602 27.0727 43.9143C27.0896 43.8771 27.1166 43.8865 27.1373 43.8846C27.3955 43.8618 27.6361 43.7824 27.86 43.6549C27.9246 43.6181 27.9889 43.5719 28.0365 43.5157C28.2534 43.2592 28.4999 43.0316 28.7316 42.7896C29.4254 42.065 30.0506 41.2845 30.6269 40.4647C30.9664 39.9818 31.3202 39.5097 31.679 39.0413C31.703 39.01 31.717 38.964 31.7674 38.9598L31.7643 38.9573Z" fill="white"/>
<path d="M30.0128 29.4119C29.9539 29.4503 29.9234 29.4713 29.8918 29.4905C29.7912 29.5517 29.6911 29.6135 29.5891 29.6724C29.4975 29.7253 29.4239 29.7948 29.3663 29.884C29.2999 29.9868 29.23 30.0875 29.1579 30.1865C29.0717 30.3051 29.0076 30.3214 28.8662 30.2689C28.8231 30.2529 28.7772 30.2414 28.747 30.2051C28.7518 30.1951 28.7525 30.1893 28.7556 30.1875C28.9299 30.0821 29.0531 29.9303 29.152 29.7555C29.1938 29.6816 29.2431 29.6129 29.3109 29.5593C29.3339 29.5855 29.3138 29.6042 29.303 29.6227C29.26 29.6958 29.2153 29.7678 29.1725 29.8409C29.1588 29.8642 29.1491 29.8896 29.131 29.9279C29.1618 29.9262 29.1818 29.9311 29.1932 29.9234C29.2517 29.8835 29.3055 29.8382 29.3441 29.777C29.4647 29.5861 29.6415 29.4807 29.8608 29.4408C29.9006 29.4336 29.9404 29.4257 30.0128 29.4119Z" fill="white"/>
<path d="M31.2899 22.6855C31.336 22.834 31.3956 22.9542 31.4936 23.0527C31.5862 23.1456 31.7009 23.2072 31.8068 23.2866C31.7812 23.2866 31.7545 23.2912 31.7301 23.2859C31.5604 23.2492 31.3912 23.2105 31.2218 23.172C31.1989 23.1668 31.1762 23.1603 31.1541 23.1527C31.0814 23.1281 31.0592 23.0888 31.0756 23.0139C31.1038 22.886 31.1648 22.7788 31.2899 22.6855Z" fill="white"/>
<path d="M19.0615 34.3562C19.0705 34.4665 19.0753 34.5586 19.0861 34.6499C19.1138 34.8843 19.189 35.1072 19.2553 35.3322C19.2778 35.4087 19.3046 35.4839 19.3285 35.56C19.3349 35.5804 19.3379 35.6018 19.3266 35.6293C19.3136 35.6113 19.2965 35.5949 19.2881 35.5749C19.1668 35.2891 19.0579 34.9991 19.0289 34.6866C19.0215 34.6076 19.0253 34.5274 19.0262 34.4478C19.0264 34.4205 19.0354 34.3943 19.0615 34.3562Z" fill="white"/>
<path d="M32.6331 23.0681C32.6538 23.0493 32.6564 23.045 32.6601 23.0438C32.867 22.9744 32.8952 22.9824 33.0307 23.1494C33.0481 23.1709 33.0645 23.1931 33.0878 23.2233C33.0639 23.2367 33.0467 23.2514 33.027 23.2563C32.9502 23.2757 32.8727 23.2928 32.7951 23.3088C32.7654 23.315 32.7418 23.2823 32.7553 23.2543C32.7732 23.2172 32.794 23.1813 32.8172 23.138C32.756 23.1148 32.7019 23.0942 32.6331 23.0681Z" fill="white"/>
<path d="M30.4671 29.1902C30.3006 29.4342 30.066 29.5788 29.7596 29.6729C29.7838 29.6443 29.7887 29.636 29.7958 29.6306C29.8069 29.6221 29.8191 29.6147 29.8317 29.6084C29.8948 29.5769 29.9578 29.5448 30.0217 29.515C30.1771 29.4423 30.3182 29.3512 30.4245 29.2129C30.4333 29.2014 30.4549 29.1998 30.4706 29.1936L30.4671 29.1902Z" fill="white"/>
<path d="M31.6989 22.5164C31.6559 22.4636 31.6605 22.4223 31.7026 22.3859C31.7411 22.3526 31.7833 22.3245 31.8314 22.304C31.8687 22.4324 31.8584 22.4486 31.6989 22.5164Z" fill="white"/>
<path d="M30.4715 29.194C30.4717 29.1761 30.4655 29.1548 30.473 29.141C30.5488 29.0008 30.5855 28.8515 30.5852 28.6926C30.5852 28.686 30.5914 28.6793 30.5971 28.668C30.6366 28.7094 30.629 28.758 30.6239 28.8029C30.6077 28.946 30.5629 29.0785 30.4678 29.1903C30.468 29.1906 30.4715 29.194 30.4715 29.194Z" fill="white"/>
<path d="M29.4404 29.9548C29.4242 30.0859 29.3559 30.1651 29.2487 30.2314C29.282 30.1361 29.3323 30.064 29.4404 29.9548Z" fill="white"/>
<path d="M31.7684 38.9619C31.7687 38.9529 31.7691 38.9438 31.7694 38.9348C31.7752 38.9382 31.7811 38.9415 31.7869 38.9447C31.7796 38.9495 31.7722 38.9543 31.7648 38.959C31.7649 38.9591 31.7684 38.9619 31.7684 38.9619Z" fill="white"/>
<path d="M22.7466 23.1975C22.7107 23.2289 22.6799 23.2559 22.6492 23.2827C22.4829 23.2194 22.3337 23.0834 22.2631 22.9318C22.2449 22.8929 22.2254 22.8532 22.2409 22.8102C22.2715 22.7251 22.2504 22.6429 22.2337 22.5597C22.2263 22.523 22.2217 22.4855 22.2205 22.4482C22.22 22.4329 22.2322 22.4172 22.2389 22.401C22.2787 22.4121 22.2681 22.4399 22.2719 22.4595C22.2764 22.4826 22.2758 22.5065 22.2784 22.5299C22.2808 22.5533 22.2832 22.5769 22.2879 22.5999C22.2925 22.6217 22.3002 22.6429 22.3115 22.6816C22.3316 22.6551 22.3482 22.6432 22.3493 22.63C22.3567 22.5456 22.3603 22.4608 22.3664 22.3761C22.368 22.3538 22.3674 22.3277 22.4082 22.3192C22.4128 22.3341 22.4212 22.3492 22.4216 22.3647C22.4235 22.4306 22.4241 22.4966 22.4229 22.5626C22.4219 22.6172 22.4298 22.6631 22.485 22.6938C22.5054 22.7052 22.515 22.7389 22.5259 22.764C22.5887 22.9091 22.6617 22.9582 22.8213 22.9515C22.8867 22.9487 22.9533 22.9407 23.0165 22.9242C23.1501 22.8893 23.2327 22.7866 23.243 22.6499C23.2488 22.5744 23.2443 22.4995 23.2177 22.427C23.2017 22.3834 23.1898 22.3385 23.1732 22.2852C23.2029 22.2806 23.2272 22.2694 23.245 22.276C23.2642 22.283 23.2834 22.3039 23.2918 22.3235C23.3308 22.4143 23.3653 22.507 23.4032 22.5984C23.4135 22.6233 23.4296 22.6459 23.4514 22.6845C23.4684 22.6524 23.481 22.6354 23.4869 22.6161C23.5001 22.5733 23.4796 22.5201 23.5258 22.4868C23.5632 22.5031 23.5704 22.5325 23.5662 22.5676C23.559 22.6281 23.5499 22.6886 23.5453 22.7493C23.5408 22.8065 23.5345 22.8646 23.4983 22.9096C23.4655 22.9503 23.4839 22.9891 23.4884 23.0401C23.3885 23.1235 23.2858 23.2124 23.1791 23.2963C23.1555 23.315 23.1185 23.3221 23.087 23.3243C23.0256 23.3288 22.9923 23.3029 22.9721 23.2423C22.9617 23.2111 22.9576 23.1777 22.9464 23.147C22.9406 23.1312 22.9252 23.1191 22.9066 23.0958C22.8887 23.171 22.8734 23.2346 22.8583 23.2978C22.8194 23.3106 22.8119 23.276 22.7949 23.2566C22.7798 23.2394 22.7658 23.2211 22.7466 23.1975Z" fill="white"/>
<path d="M22.5311 22.6346C22.5173 22.4879 22.5006 22.3483 22.5873 22.2085C22.6898 22.3905 22.6692 22.5386 22.5311 22.6346Z" fill="white"/>
<path d="M24.1256 23.7014C24.105 23.7651 24.0532 23.7711 23.9978 23.7708C23.9977 23.7707 24.0006 23.774 24.0006 23.774C24.0306 23.7281 24.0912 23.7373 24.128 23.7036L24.1256 23.7014Z" fill="white"/>
<path d="M24.3591 23.6267C24.3392 23.6413 24.3193 23.6559 24.2986 23.6699C24.2979 23.6694 24.3012 23.6715 24.3012 23.6715C24.3077 23.6368 24.3382 23.6373 24.363 23.6293L24.3591 23.6267Z" fill="white"/>
<path d="M24.1277 23.7035C24.1625 23.7012 24.1973 23.6989 24.2321 23.6966L24.2282 23.6919C24.1964 23.7158 24.1627 23.7207 24.126 23.7018C24.1253 23.7012 24.1277 23.7035 24.1277 23.7035Z" fill="white"/>
<path d="M24.2322 23.6966C24.2395 23.6477 24.2737 23.6698 24.3004 23.6713C24.301 23.6718 24.2977 23.6696 24.2984 23.6702C24.2755 23.6777 24.2518 23.6847 24.2282 23.6918C24.2284 23.6919 24.2322 23.6966 24.2322 23.6966Z" fill="white"/>
<path d="M24.3631 23.6293C24.3693 23.6248 24.3753 23.6199 24.3819 23.6162C24.3836 23.6152 24.3873 23.6178 24.3901 23.6188C24.38 23.6216 24.3699 23.6243 24.3594 23.6268C24.3591 23.6266 24.3631 23.6293 24.3631 23.6293Z" fill="white"/>
</g>
<defs>
<filter id="filter0_b_0_1" x="-177" y="-30" width="1952" height="114" filterUnits="userSpaceOnUse" color-interpolation-filters="sRGB">
<feFlood flood-opacity="0" result="BackgroundImageFix"/>
<feGaussianBlur in="BackgroundImageFix" stdDeviation="8"/>
<feComposite in2="SourceAlpha" operator="in" result="effect1_backgroundBlur_0_1"/>
<feBlend mode="normal" in="SourceGraphic" in2="effect1_backgroundBlur_0_1" result="shape"/>
</filter>
<clipPath id="clip0_0_1">
<rect width="1920" height="7944" fill="white" transform="translate(-161 -14)"/>
</clipPath>
</defs>
</svg>
