<svg width="81" height="27" viewBox="0 0 81 27" fill="none" xmlns="http://www.w3.org/2000/svg">
<rect width="81" height="27" fill="#F5F5F5"/>
<g clip-path="url(#clip0_0_1)">
<rect width="1920" height="7944" transform="translate(-230 -29)" fill="#111223"/>
<g filter="url(#filter0_b_0_1)">
<mask id="path-1-inside-1_0_1" fill="white">
<path d="M-230 -29H1690V53H-230V-29Z"/>
</mask>
<path d="M-230 -29H1690V53H-230V-29Z" fill="#111223"/>
<path d="M1690 52H-230V54H1690V52Z" fill="#595959" mask="url(#path-1-inside-1_0_1)"/>
</g>
<path d="M8.79141 23.2674C8.79141 24.1874 8.51879 25.0052 7.97359 25.6867C7.42838 26.3682 6.76391 26.709 5.99722 26.709H2.82825C2.06156 26.709 1.39707 26.3682 0.834826 25.6867C0.272585 25.0052 0 24.2044 0 23.2674L0 4.10005C0 3.18002 0.272585 2.36221 0.834826 1.6807C1.39707 0.999197 2.06156 0.658447 2.82825 0.658447H5.80983C6.57652 0.675485 7.22394 1.03328 7.76915 1.69774C8.31435 2.36221 8.58694 3.16298 8.58694 4.10005V8.88762H7.30912V4.10005C7.30912 3.52077 7.15579 2.97557 6.86615 2.49851C6.55948 2.00442 6.20167 1.76589 5.75869 1.76589H2.82825C2.38527 1.76589 2.02747 2.00442 1.72079 2.49851C1.41411 2.9926 1.27782 3.52077 1.27782 4.10005V23.2674C1.27782 23.8466 1.43115 24.3918 1.72079 24.8689C2.02747 25.363 2.38527 25.6015 2.82825 25.6015H5.96316C6.40614 25.6015 6.76392 25.363 7.0706 24.8689C7.37727 24.3748 7.51359 23.8466 7.51359 23.2674V15.9071H4.08902V14.8167H8.79141V23.2674Z" fill="white"/>
<path d="M28.8465 26.6059H27.5687V2.02061L23.7352 25.8733H22.304L18.1639 2.17394V26.6059H16.886V0.776855H19.101L22.9855 23.6413L26.4953 0.776855H28.8294V26.6059H28.8465Z" fill="white"/>
<path d="M44.0593 26.6058H38.6754C38.1813 26.6058 37.7384 26.3673 37.3635 25.9073C36.9887 25.4473 36.8013 24.9021 36.8013 24.3058V8.17114H38.0791V24.3058C38.0791 24.6465 38.1813 24.9362 38.3688 25.1576C38.5562 25.3962 38.7776 25.4984 38.9991 25.4984H42.7644V8.17114H44.0423V26.6058H44.0593Z" fill="white"/>
<path d="M57.5371 17.865C57.7245 18.2909 57.8267 18.7339 57.8438 19.194V24.2712C57.8438 24.8845 57.6563 25.4127 57.2815 25.8727C56.9067 26.3327 56.4637 26.5712 55.9355 26.5712H53.1073C52.6132 26.5712 52.1703 26.3327 51.7954 25.8727C51.4206 25.4127 51.2332 24.8675 51.2332 24.2712V19.9606H52.511V24.2712C52.511 24.6119 52.6132 24.9015 52.8176 25.123C53.0221 25.3616 53.2436 25.4638 53.4651 25.4638H55.6118C55.8504 25.4638 56.0548 25.3445 56.2422 25.123C56.4467 24.8845 56.5319 24.6119 56.5319 24.2712V19.5858C56.5319 19.1258 56.4466 18.768 56.2763 18.5295C56.1059 18.291 55.8674 18.0695 55.5607 17.865C55.3392 17.7117 54.7258 17.3709 53.7206 16.8087L52.4428 16.1101C51.8806 15.7694 51.5398 15.3775 51.4035 14.9346C51.2672 14.4916 51.1991 13.9464 51.1991 13.2819V10.3514C51.1991 9.72104 51.3865 9.17583 51.7443 8.69878C52.1021 8.23876 52.5451 8.00024 53.0732 8.00024H55.5948C56.1059 8.00024 56.5659 8.23876 56.9408 8.69878C57.3156 9.15879 57.503 9.704 57.503 10.3514V13.6397H56.2252V10.3514C56.2252 9.99364 56.123 9.68696 55.9355 9.44844C55.7311 9.20991 55.5267 9.10768 55.3052 9.10768H53.4651C53.2095 9.10768 52.988 9.20991 52.8006 9.4314C52.5962 9.65289 52.511 9.95956 52.511 10.3514V13.2819C52.511 13.8101 52.5792 14.1849 52.6984 14.3893C52.8177 14.5938 53.0732 14.8153 53.448 15.0368C53.8228 15.3094 54.4192 15.6501 55.2541 16.059C55.5948 16.2294 56.0719 16.502 56.6852 16.8598C57.06 17.1154 57.3497 17.4391 57.5371 17.865Z" fill="white"/>
<path d="M65.0345 5.88886V2.92432H66.3123V5.88886H65.0345ZM65.0345 26.6066V8.1719H66.3123V26.6066H65.0345Z" fill="white"/>
<path d="M79.7232 10.3866C79.7232 10.0288 79.621 9.72212 79.4336 9.48359C79.2291 9.24507 79.0247 9.14285 78.8032 9.14285H76.3157C76.0602 9.14285 75.8387 9.24508 75.6513 9.46657C75.4468 9.68806 75.3616 9.99472 75.3616 10.3866V24.2893C75.3616 24.63 75.4638 24.9197 75.6683 25.1412C75.8727 25.3797 76.0942 25.4819 76.3157 25.4819H78.8032C79.0247 25.4819 79.2462 25.3627 79.4336 25.1412C79.638 24.9026 79.7232 24.63 79.7232 24.2893V19.6039H81.0011V24.2893C81.0011 24.9026 80.8137 25.4308 80.4388 25.8908C80.064 26.3508 79.621 26.5894 79.0929 26.5894H75.9579C75.4468 26.5894 74.9868 26.3508 74.612 25.8908C74.2371 25.4308 74.0497 24.8856 74.0497 24.2893V10.3866C74.0497 9.75619 74.2371 9.211 74.612 8.73395C74.9868 8.27393 75.4298 8.0354 75.9579 8.0354H79.0929C79.604 8.0354 80.064 8.27393 80.4388 8.73395C80.8137 9.19396 81.0011 9.73916 81.0011 10.3866V13.6748H79.7232V10.3866Z" fill="white"/>
</g>
<defs>
<filter id="filter0_b_0_1" x="-246" y="-45" width="1952" height="114" filterUnits="userSpaceOnUse" color-interpolation-filters="sRGB">
<feFlood flood-opacity="0" result="BackgroundImageFix"/>
<feGaussianBlur in="BackgroundImageFix" stdDeviation="8"/>
<feComposite in2="SourceAlpha" operator="in" result="effect1_backgroundBlur_0_1"/>
<feBlend mode="normal" in="SourceGraphic" in2="effect1_backgroundBlur_0_1" result="shape"/>
</filter>
<clipPath id="clip0_0_1">
<rect width="1920" height="7944" fill="white" transform="translate(-230 -29)"/>
</clipPath>
</defs>
</svg>
