<svg width="22" height="20" viewBox="0 0 22 20" fill="none" xmlns="http://www.w3.org/2000/svg">
<path d="M0.257812 19.0859V14.3594C0.257812 12.7708 0.492188 11.1172 0.960938 9.39844C1.45573 7.65365 2.15885 5.98698 3.07031 4.39844C4.00781 2.78385 5.1276 1.39062 6.42969 0.21875L10.2969 3.07031C9.25521 4.78906 8.46094 6.5599 7.91406 8.38281C7.36719 10.1797 7.09375 12.1328 7.09375 14.2422V19.0859H0.257812ZM11.3906 19.0859V14.3594C11.3906 12.7708 11.625 11.1172 12.0938 9.39844C12.5885 7.65365 13.2917 5.98698 14.2031 4.39844C15.1406 2.78385 16.2604 1.39062 17.5625 0.21875L21.4297 3.07031C20.388 4.78906 19.5938 6.5599 19.0469 8.38281C18.5 10.1797 18.2266 12.1328 18.2266 14.2422V19.0859H11.3906Z" fill="#EBEBEB"/>
</svg>
