<svg width="40" height="40" viewBox="0 0 40 40" fill="none" xmlns="http://www.w3.org/2000/svg">
<path d="M20.506 8.83887C14.756 8.83887 10.0893 13.5055 10.0893 19.2555C10.0893 25.0055 14.756 29.6722 20.506 29.6722C26.256 29.6722 30.9226 25.0055 30.9226 19.2555C30.9226 13.5055 26.256 8.83887 20.506 8.83887ZM25.3393 15.9222C25.183 17.568 24.506 21.568 24.1622 23.4118C24.0164 24.193 23.7247 24.4535 23.4539 24.4847C22.8497 24.5368 22.3914 24.0889 21.808 23.7035C20.8914 23.0993 20.3705 22.7243 19.4851 22.141C18.4539 21.4639 19.1205 21.0889 19.7143 20.4847C19.8705 20.3285 22.5372 17.9014 22.5893 17.6826C22.5965 17.6495 22.5956 17.6151 22.5865 17.5824C22.5774 17.5497 22.5605 17.5198 22.5372 17.4951C22.4747 17.443 22.3914 17.4639 22.3185 17.4743C22.2247 17.4951 20.7664 18.4639 17.9226 20.3805C17.506 20.6618 17.131 20.8076 16.7976 20.7972C16.4226 20.7868 15.7143 20.5889 15.183 20.4118C14.5268 20.2035 14.0164 20.0889 14.058 19.7243C14.0789 19.5368 14.3393 19.3493 14.8289 19.1514C17.8705 17.8285 19.8914 16.9535 20.9018 16.5368C23.7976 15.3285 24.3914 15.1201 24.7872 15.1201C24.8705 15.1201 25.0685 15.141 25.1935 15.2451C25.2976 15.3285 25.3289 15.443 25.3393 15.5264C25.3289 15.5889 25.3497 15.7764 25.3393 15.9222Z" fill="white"/>
<circle cx="20" cy="20" r="19.4495" stroke="white" stroke-width="1.10098"/>
</svg>
