<svg width="40" height="40" viewBox="0 0 40 40" fill="none" xmlns="http://www.w3.org/2000/svg">
<mask id="mask0_450_582" style="mask-type:luminance" maskUnits="userSpaceOnUse" x="11" y="9" width="18" height="19">
<path d="M13.3819 13.071C14.3944 13.071 15.2153 12.2502 15.2153 11.2376C15.2153 10.2251 14.3944 9.4043 13.3819 9.4043C12.3694 9.4043 11.5486 10.2251 11.5486 11.2376C11.5486 12.2502 12.3694 13.071 13.3819 13.071Z" fill="white"/>
<path d="M11.5488 15.8208H15.2155V27.2791H11.5488V15.8208ZM18.8822 20.175V27.2791H22.0905V20.8625C22.0905 19.7166 22.778 18.8 23.9238 18.8C25.0697 18.8 25.7572 19.9458 25.7572 20.8625V27.2791H28.9655V20.175C28.9655 18.8 27.3613 15.8208 23.9238 15.8208C20.4863 15.8208 18.8822 18.8 18.8822 20.175Z" fill="white"/>
</mask>
<g mask="url(#mask0_450_582)">
<path d="M9.25708 7.5708H31.2571V29.5708H9.25708V7.5708Z" fill="white"/>
</g>
<circle cx="20" cy="20" r="19.4495" stroke="white" stroke-width="1.10098"/>
</svg>
