<svg width="14" height="14" viewBox="0 0 14 14" fill="none" xmlns="http://www.w3.org/2000/svg">
<path d="M13.6143 4.56341C13.7418 5.19009 13.8773 5.71232 13.9491 6.25062C14.4114 9.88214 11.6695 13.4413 8.05875 13.9314C4.01763 14.4697 0.558372 11.7863 0.0482509 7.70484C-0.406076 4.06529 2.40756 0.425734 5.97841 0.00794882C6.2813 -0.0241885 6.39289 0.0320518 6.38492 0.345391C6.36898 0.77121 6.361 1.20506 6.38492 1.63088C6.40883 1.97636 6.25739 2.08081 5.94653 2.15311C3.58722 2.70748 2.02497 4.75624 2.09671 7.18261C2.17641 9.64915 4.20893 11.7541 6.67983 11.9068C9.19059 12.0675 11.4702 10.2517 11.8209 7.78518C11.8926 7.28705 11.8368 6.77285 11.8528 6.26669C11.8528 6.14618 11.8687 5.97746 11.9484 5.90515C12.4665 5.47933 13.0006 5.06154 13.6143 4.56341Z" fill="white"/>
<path d="M8.30977 4.9C8.30977 3.26903 8.30977 1.68627 8.30977 0.0552979C8.49309 0.0874352 8.62062 0.0954695 8.74815 0.127607C9.99955 0.457014 11.0676 1.09173 11.9922 1.99961C12.2074 2.2085 12.2632 2.37722 12.0719 2.64235C11.7292 3.13245 11.4263 3.65468 11.1154 4.15281C10.5734 3.65468 10.0474 3.16458 9.52131 2.68252C9.48145 2.70663 9.4416 2.73073 9.40175 2.75483C9.39378 2.89142 9.38581 3.03603 9.38581 3.17262C9.38581 4.45811 9.39378 5.7436 9.37784 7.0291C9.36189 8.21818 8.47715 9.22247 7.35329 9.35102C6.1019 9.49563 5.01789 8.79665 4.70704 7.60757C4.46792 6.67558 4.6911 5.84805 5.40048 5.19727C6.10987 4.54649 6.94679 4.41794 7.84747 4.72324C7.98297 4.76341 8.11847 4.81965 8.30977 4.9Z" fill="white"/>
</svg>
