<svg width="217" height="251" viewBox="0 0 217 251" fill="none" xmlns="http://www.w3.org/2000/svg">
<path d="M185.579 116.075C185.579 128.05 185.579 140.026 185.579 152.002C185.579 152.228 185.593 152.455 185.614 152.682C185.77 154.326 186.577 157.033 185.961 157.408C183.83 158.712 181.202 159.215 178.752 159.988C178.448 160.08 178.072 160.002 177.74 159.945C160.864 157.111 144.4 160.845 127.836 163.028C124.607 163.453 121.3 163.162 118.035 163.361C112.207 163.708 106.344 163.871 100.558 164.644C84.7169 166.755 68.8826 167.535 52.9634 165.685C51.4763 165.515 49.9113 166.061 48.3746 166.181C45.5774 166.401 42.681 167.102 39.9972 166.628C30.6071 164.991 21.3374 165.869 12.0535 167.18C8.15161 167.733 5.2411 166.202 2.8688 163.325C2.4864 162.865 2.3306 162.1 2.3306 161.469C2.20314 133.337 2.11108 105.211 1.99069 77.0792C1.93404 64.4374 2.03318 51.7956 1.69327 39.1609C1.41709 29.226 0.581471 19.3124 0.0432759 9.38461C-0.0346207 7.92485 -0.0346207 6.4084 0.276966 4.99824C0.900139 2.18502 2.50056 0.533929 5.71557 0.732343C15.7571 1.34176 25.7633 1.03705 35.812 0.186704C42.5182 -0.380193 49.3377 0.51267 56.1076 0.640222C62.4172 0.753601 68.7339 0.682739 75.0506 0.739429C87.3583 0.852808 99.6589 1.01579 111.967 1.12208C116.577 1.1646 121.201 0.959101 125.804 1.15043C133.346 1.46222 140.916 1.66772 148.394 2.54641C157.309 3.59517 166.126 4.04869 175.049 2.7094C179.673 2.01495 179.503 2.36217 179.595 7.06742C179.765 15.4221 180.303 23.7767 180.579 32.1313C180.948 43.2 180.969 54.2828 181.592 65.3373C182.371 79.2121 183.653 93.0586 184.623 106.926C184.835 109.966 184.651 113.028 184.651 116.082C184.956 116.082 185.26 116.082 185.565 116.082L185.579 116.075ZM5.50312 129.85L4.60377 129.886C4.60377 139.268 4.61085 148.643 4.60377 158.025C4.60377 161.001 5.8926 162.022 8.98722 162.071C21.394 162.284 33.7938 162.914 46.2006 163.184C54.8825 163.375 63.5786 163.538 72.2464 163.184C82.0401 162.773 91.7984 161.611 101.592 161.044C112.073 160.441 122.539 160.073 132.701 156.92C135.456 156.069 138.621 155.332 141.348 155.85C153.563 158.181 165.637 156.225 177.74 155.254C182.328 154.886 183.037 153.943 183.256 149.309C183.291 148.636 183.221 147.955 183.185 147.275C182.364 130.481 181.755 113.679 180.671 96.9064C179.567 79.7649 177.987 62.6588 176.642 45.5385C176.153 39.3522 175.438 33.1659 175.346 26.9726C175.275 22.0193 175.877 17.0448 176.394 12.0986C176.727 8.924 175.573 7.56345 172.379 7.30126C161.912 6.44383 151.474 5.12579 140.994 4.52347C125.903 3.65895 110.784 3.27629 95.672 2.68814C92.287 2.5535 88.9021 2.25588 85.5171 2.31257C62.481 2.67396 39.4448 3.12748 16.4086 3.49597C13.5902 3.53848 10.7718 3.24086 7.95332 3.07079C5.85011 2.94324 4.73832 3.97783 4.64626 6.01157C4.45506 10.5113 4.2072 15.0181 4.24261 19.5179C4.30634 28.7441 4.73124 37.9704 4.65334 47.1966C4.54712 59.6259 3.76107 72.0622 3.90978 84.4914C4.08682 99.6133 4.9366 114.735 5.49604 129.857L5.50312 129.85ZM178.207 19.525C175.474 31.9967 178.66 44.0433 179.467 56.2316C179.8 56.2103 180.133 56.1961 180.466 56.1749C179.715 43.9582 178.958 31.7416 178.207 19.525ZM130.485 160.158L143.331 158.96C143.295 158.599 143.253 158.238 143.217 157.876C138.756 156.672 134.592 158.11 130.492 160.158H130.485ZM2.12524 25.3428L2.54305 25.3073V5.09036C2.40142 5.09036 2.26687 5.09036 2.12524 5.09036V25.3428Z" fill="#41414F"/>
<path d="M182.768 211.129C182.768 212.957 182.817 215.126 182.711 217.28C182.697 217.585 181.876 218.123 181.5 218.066C180.934 217.981 180.431 217.471 179.914 217.124C179.001 216.515 178.066 215.317 177.195 215.367C158.726 216.472 140.258 217.67 121.803 219.009C119.778 219.158 117.838 220.362 115.812 220.887C114.573 221.213 113.235 221.347 111.953 221.276C110.105 221.17 108.235 220.44 106.436 220.603C86.084 222.453 65.753 224.501 45.4008 226.322C37.427 227.038 29.3966 227.193 21.4157 227.874C20.0631 227.987 18.5619 229.248 17.5988 230.382C16.1046 232.133 15.0636 231.325 14.6458 229.915C14.228 228.49 14.5679 226.839 14.5679 225.287C15.6726 225.479 16.7702 225.67 17.875 225.861C18.6185 225.989 19.3692 226.294 20.0985 226.237C42.6248 224.657 65.1582 223.112 87.6774 221.39C94.3198 220.88 100.927 219.93 107.527 219.03C108.731 218.867 110.289 218.244 110.891 217.315C112.321 215.097 113.73 215.43 115.763 216.302C117.42 217.018 119.388 217.542 121.152 217.393C132.404 216.458 143.621 215.161 154.874 214.304C161.622 213.793 168.421 214.049 175.177 213.588C177.506 213.425 179.758 212.128 182.754 211.115L182.768 211.129Z" fill="#41414F"/>
<path d="M80.2204 248.147C79.838 243.683 79.4697 239.212 79.0661 234.747C78.8891 232.813 79.838 232.6 81.3322 233.196C86.1334 235.116 90.9347 237.022 95.7147 238.985C97.8321 239.857 97.9666 241.791 95.8493 243.052C91.5933 245.596 87.2523 248.013 82.8618 250.33C80.8081 251.414 79.6893 250.443 80.2204 248.14V248.147Z" fill="#41414F"/>
<path d="M117.696 237.029C121.712 238.51 124.912 239.686 128.29 240.934C128.779 239.346 129.069 238.418 129.43 237.256C133.552 237.95 137.624 238.645 141.688 239.332C141.795 239.658 141.894 239.977 142 240.303C138.049 243.251 134.097 246.206 129.657 249.515C129.218 247.956 128.857 246.652 128.304 244.682C125.203 246.27 122.2 247.8 118.638 249.621C118.319 245.306 118.022 241.338 117.696 237.029Z" fill="#41414F"/>
<path d="M53.5591 235.343C53.3608 239.601 53.3962 243.081 52.9784 246.503C52.7235 248.615 51.3355 249.465 49.381 247.85C47.6885 246.447 46.0385 245.001 44.0415 243.293C43.6096 244.54 43.2767 245.136 43.213 245.752C42.9651 248.133 41.9312 248.686 39.828 247.46C37.6823 246.213 35.395 245.2 33.3201 243.853C32.8173 243.527 32.5766 241.671 32.7465 241.586C36.3227 239.821 39.9767 238.212 44.0628 236.37V241.338C47.2707 239.318 50.0608 237.561 53.5591 235.357V235.343Z" fill="#41414F"/>
<path d="M160.078 240.693C159.844 239.552 159.582 238.276 159.264 236.71C161.671 236.646 163.661 235.69 165.205 238.51C165.757 239.523 168.406 239.722 170.063 239.616C170.601 239.58 171.005 237.419 171.67 235.718C172.095 236.271 173.172 237.1 173.037 237.61C172.697 238.886 172.088 240.565 171.076 241.075C169.815 241.713 168.045 241.472 166.501 241.394C164.532 241.295 162.578 240.969 160.085 240.686L160.078 240.693Z" fill="#41414F"/>
<path d="M212.715 210.697C210.746 212.397 209.635 214.155 208.317 214.325C205.648 214.672 205.563 212.312 205.556 210.342C205.556 208.365 206.243 206.31 208.424 206.679C209.769 206.906 210.824 208.833 212.715 210.697Z" fill="#41414F"/>
<path d="M14.5893 189.828C12.9109 187.022 11.615 184.86 10.2412 182.572C10.921 181.65 12.0328 180.148 13.2367 178.518C13.7324 179.475 14.0581 181.133 15.0283 181.7C16.0905 182.331 17.7476 181.969 19.3976 182.848C17.9813 183.401 16.048 183.571 15.2903 184.605C14.4901 185.697 14.8229 187.61 14.5893 189.828Z" fill="#41414F"/>
<path d="M167.875 235.605C165.843 231.899 165.404 231.842 160.596 234.117C161.566 230.148 167.89 228.972 172.259 232.409C170.793 233.479 169.462 234.45 167.875 235.605Z" fill="#41414F"/>
<path d="M191.534 215.331C192.228 214.927 192.922 214.53 194.466 213.631C192.653 212.56 191.237 211.724 189.82 210.895C190.04 210.378 190.252 209.861 190.472 209.35C191.768 209.428 193.977 209.131 194.19 209.655C194.933 211.462 195.181 213.553 195.124 215.53C195.11 215.948 193.035 216.309 191.909 216.699C191.782 216.245 191.662 215.792 191.534 215.338V215.331Z" fill="#41414F"/>
<path d="M214.946 214.339C214.33 211.186 213.82 208.613 213.324 206.062C215.923 206.325 217.361 208.436 216.922 212.022C216.808 212.929 215.519 213.701 214.946 214.332V214.339Z" fill="#41414F"/>
<path d="M188.278 174.104C186.465 175.379 185.466 176.407 184.269 176.768C183.795 176.91 182.874 175.592 182.159 174.94C183.087 174.026 183.88 172.849 184.992 172.318C185.48 172.084 186.599 173.147 188.278 174.111V174.104Z" fill="#41414F"/>
<path d="M184.92 177.93C185.94 179.39 187.108 180.587 186.917 180.864C186.251 181.835 185.118 182.494 184.169 183.266C183.631 182.543 182.569 181.721 182.682 181.126C182.866 180.176 183.837 179.383 184.92 177.923V177.93Z" fill="#41414F"/>
<path d="M185.643 183.705C186.5 185.25 187.42 186.193 187.222 186.703C186.861 187.645 185.841 188.34 185.098 189.141C184.531 188.503 183.405 187.759 183.504 187.263C183.702 186.256 184.574 185.385 185.636 183.705H185.643Z" fill="#41414F"/>
<path d="M81.9201 158.202C71.2907 160.073 61.7519 155.786 52.1636 152.746C43.4108 149.975 35.9469 144.611 29.8143 137.461C22.5416 128.979 18.4839 118.852 15.8071 108.436C13.711 100.279 11.5086 91.8398 12.9037 83.0316C13.9942 76.1438 16.3028 69.83 18.8592 63.3815C21.9468 55.608 27.3641 49.9532 32.6965 43.9937C41.3218 34.3564 52.3123 28.9284 64.5845 25.8034C72.969 23.6704 81.4669 22.7634 90.1063 24.3436C92.3157 24.7475 94.6101 24.8396 96.8621 24.8113C106.245 24.6766 114.134 28.4678 121.555 33.7824C129.784 39.6711 136.356 47.0407 141.32 55.778C144.712 61.7446 148.543 67.6899 150.554 74.1526C152.381 80.02 152.898 86.6456 152.395 92.8106C151.694 101.406 150.2 110.094 147.75 118.349C145.795 124.932 141.985 130.991 138.77 137.17C137.984 138.68 136.164 139.608 135.067 140.997C134.033 142.301 131.172 142.464 132.263 145.284C132.362 145.532 131.03 146.467 130.266 146.893C121.314 151.888 111.931 155.623 101.649 156.849C95.0775 157.635 88.5342 158.606 81.9767 159.492L81.9201 158.188V158.202ZM58.0625 83.2229C55.1024 80.4168 55.3857 77.1926 57.3968 73.7274C51.3279 73.5148 48.9132 76.98 46.8524 81.1892C45.252 84.4488 43.2338 87.4959 41.3926 90.6422L40.3728 90.6847C39.9409 89.31 39.1194 87.914 39.1832 86.5605C39.2611 84.9803 40.1179 83.4355 40.6419 81.8836C36.8887 85.2 36.9525 80.2325 34.828 79.3255C34.4598 80.5656 34.4244 81.7915 33.8083 82.5568C32.4911 84.1866 30.6641 86.9928 29.4319 86.8015C26.0399 86.2771 25.9407 87.9919 26.0682 90.1674C26.2098 92.5059 26.918 94.8231 26.9251 97.1473C26.9251 100.116 26.2169 103.1 26.3231 106.055C26.3656 107.323 27.6403 108.584 28.4617 109.782C30.2605 112.397 32.2149 114.912 33.9428 117.577C35.8548 120.525 37.5827 123.593 39.3885 126.605C39.6789 126.435 39.9621 126.257 40.2525 126.087C36.4922 118.902 34.9626 107.139 37.781 103.858C39.0557 107.125 40.2383 110.158 41.4138 113.169C45.8185 111.759 40.6207 109.541 42.9009 107.437C44.9333 110.172 46.9091 112.85 48.8919 115.522C49.1539 115.451 49.4159 115.373 49.678 115.302C48.9344 113.006 48.1908 110.717 47.1782 107.592C49.5222 108.818 50.9739 109.577 52.7088 110.484C51.5475 106.94 50.5915 104.007 49.6001 100.995C50.9597 100.116 52.1848 99.3228 53.4595 98.5008C58.0837 110.08 58.629 110.59 65.7601 109.321C64.6695 107.366 63.7206 105.658 62.715 103.858C63.5931 102.916 64.6553 101.775 66.1637 100.159C66.5815 105.19 69.4495 105.693 73.1744 104.659C70.6534 100.322 68.1465 96.0135 65.0094 90.6138C65.4272 87.9707 66.0504 84.0024 66.7161 79.7932C65.5264 80.6931 64.6341 81.3663 63.8197 81.9828C62.9204 80.4947 62.2689 79.4176 61.6174 78.3405C60.4702 79.9137 59.3159 81.4868 58.0483 83.23L58.0625 83.2229ZM139.84 105.141C143.565 103.326 143.288 100.527 143.168 97.8914C143.09 96.219 142.729 94.5538 142.453 92.8885C141.546 87.4392 140.782 81.9545 139.627 76.5548C139.181 74.4715 137.921 72.4661 135.06 73.0896C134.422 71.6441 133.785 70.2056 133.148 68.76C132.546 70.5953 132.652 72.2393 132.496 73.855C132.418 74.6415 131.859 75.3785 131.512 76.1367C130.818 75.6761 130.053 75.2864 129.451 74.7195C128.991 74.2801 128.736 73.6282 128.382 73.0613C127.086 73.451 125.946 73.7912 124.692 74.1738C124.855 74.7974 125.146 75.3431 125.117 75.8674C125.018 77.7169 125.245 80.9695 124.572 81.175C121.435 82.1316 121.831 78.8082 120.854 77.1642C119.919 75.5982 119.197 73.9046 118.376 72.2676C117.922 72.3385 117.469 72.4023 117.009 72.4731C119.289 75.4068 118.383 77.1642 115.784 77.9366V82.9182C115.472 83.0387 115.161 83.1591 114.849 83.2796C112.335 79.3184 109.821 75.3572 107.307 71.396C106.911 71.6157 106.514 71.8354 106.118 72.0551C106.812 73.7557 107.371 75.5273 108.242 77.1359C109.148 78.8224 110.451 80.3388 109.212 82.3938C106.663 80.5089 104.538 78.9358 102.407 77.3626C104.411 84.7394 109 91.3579 104.878 99.1811C106.422 99.3511 107.456 99.4645 108.787 99.6133C108.242 100.875 107.853 101.782 107.081 103.575C109.963 101.697 111.974 100.315 114.063 99.0535C115.054 98.4512 116.195 98.0969 117.271 97.6292C117.653 98.7134 118.312 99.7834 118.369 100.882C118.461 102.873 118.199 104.871 118.085 106.87C118.489 106.926 118.9 106.99 119.303 107.047C119.919 104.368 120.458 101.661 121.187 99.011C121.499 97.8701 122.278 95.8931 122.724 95.9214C124.636 96.0702 126.966 96.0986 127.398 98.848C127.56 99.8968 127.822 100.924 128.035 101.916C129.664 100.017 131.144 98.2882 132.971 96.1623C134.054 98.2315 134.755 99.5708 135.626 101.236C136.334 99.7267 136.873 98.5788 137.411 97.4308C137.666 97.4308 137.921 97.4166 138.183 97.4095C138.693 99.7834 139.202 102.157 139.847 105.126L139.84 105.141ZM87.0188 105.764C93.994 106.402 98.512 102.143 101.486 95.9285C103.292 92.1515 103.193 88.1549 100.205 84.8315C98.2571 82.6631 96.1539 80.5656 93.8595 78.7799C86.0982 72.7353 75.4334 75.3289 71.7652 84.0237C67.3251 94.5396 74.966 105.878 87.0188 105.764ZM143.607 87.3967C143.89 87.3542 144.167 87.3046 144.45 87.2621C142.198 82.1175 144.832 76.1651 142.021 71.1126C141.553 71.1905 141.093 71.2685 140.626 71.3393C141.624 76.6894 142.616 82.0395 143.614 87.3967H143.607ZM117.498 69.3127C117.937 69.093 118.383 68.8733 118.822 68.6537C117.101 65.2665 115.373 61.8793 113.652 58.492C113.348 58.6479 113.043 58.8038 112.739 58.9597C114.325 62.4107 115.911 65.8617 117.498 69.3198V69.3127ZM126.647 117.697C126.958 117.903 127.277 118.108 127.589 118.314C128.92 116.308 130.251 114.303 131.59 112.298C131.278 112.099 130.967 111.894 130.655 111.695C129.317 113.694 127.985 115.699 126.647 117.697Z" fill="#41414F"/>
<path d="M143.6 10.8514C148.967 10.8514 153.847 10.9081 158.726 10.816C160.277 10.7876 161.82 10.32 163.378 10.1428C165.998 9.84518 168.633 9.61842 171.338 9.35623C171.338 15.7055 171.423 21.0768 171.302 26.4411C171.246 29.0205 169.008 29.3677 167.124 29.4882C164.363 29.6653 163.527 30.8558 163.69 33.5911C165.396 62.106 166.99 90.6351 168.661 119.15C168.76 120.794 169.192 122.417 169.518 124.337C171.246 123.869 172.613 123.501 174.56 122.977C174.829 126.031 175.148 128.858 175.325 131.693C175.544 135.299 175.643 138.906 175.806 142.513C175.913 144.901 175.282 146.311 172.393 146.233C169.624 146.163 166.841 146.701 163.761 147.006C163.654 146.793 163.251 146.333 163.215 145.851C162.79 139.828 162.422 133.797 162.054 127.767C162.012 127.108 161.863 126.017 162.16 125.846C165.425 124.032 163.789 121.283 163.442 118.937C162.578 113.127 161.07 107.394 160.567 101.562C159.774 92.3641 159.604 83.1166 159.144 73.8833C158.478 60.5754 157.734 47.2745 157.147 33.9666C157.012 30.87 155.404 30.0834 152.742 30.3456C151.729 30.4448 150.731 30.6503 149.718 30.7424C145.554 31.1109 145.363 30.7991 145.08 26.6466C144.74 21.5516 144.145 16.4708 143.607 10.8302L143.6 10.8514ZM165.793 123.189C166.161 123.14 166.53 123.09 166.898 123.04C165.227 110.824 163.555 98.6071 161.891 86.3904C161.572 86.433 161.247 86.4755 160.928 86.5251C160.631 99.011 164.285 110.958 165.8 123.196L165.793 123.189ZM162.408 53.5104C161.509 65.4365 161.31 77.2209 163.973 88.8139C164.278 88.7927 164.582 88.7714 164.88 88.7501C164.051 77.0012 163.23 65.2594 162.401 53.5104H162.408ZM161.31 43.3417C161.459 43.37 161.608 43.3984 161.764 43.4197V30.7637L160.659 30.7849C160.878 34.9658 161.091 39.1538 161.31 43.3346V43.3417Z" fill="#41414F"/>
<path d="M20.8847 23.3444C17.2448 23.231 13.6828 21.7713 12.578 18.5683C11.6291 15.8189 12.1461 12.0915 13.2083 9.24995C14.5113 5.75645 21.3874 4.81398 25.3248 7.01779C26.7977 7.83979 28.1786 8.82478 29.6091 9.71764C33.5393 12.1766 34.2758 15.8897 30.7775 18.8376C28.0653 21.1194 24.5458 22.4516 21.3874 24.2089C21.2175 23.9184 21.0546 23.635 20.8847 23.3444Z" fill="#41414F"/>
<path d="M19.1635 155.035C16.7983 156.346 14.8863 157.968 12.7335 158.408C11.2464 158.712 8.3784 157.77 7.98891 156.707C7.27368 154.737 7.16746 151.761 8.24385 150.166C9.15028 148.813 12.0466 148.579 14.1215 148.338C14.9996 148.239 15.9627 149.571 17.0037 149.94C17.8959 150.258 19.0644 150.464 19.9 150.152C22.506 149.188 24.765 149.614 26.0326 151.995C26.5 152.866 25.9193 154.95 25.1049 155.729C23.1221 157.621 20.9906 157.005 19.206 155.063C19.0786 154.921 18.8095 154.907 19.1635 155.035Z" fill="#41414F"/>
<path d="M30.253 156.707C30.3097 151.966 30.3026 152.051 34.8631 152.554C36.7397 152.76 38.6942 152.342 40.5708 152.554C41.7676 152.689 43.6513 153.192 43.9062 153.972C44.501 155.772 44.5294 157.869 44.2319 159.761C44.1611 160.208 41.9234 160.512 40.677 160.534C38.5455 160.576 36.3998 160.137 34.2824 160.278C30.1964 160.562 30.2035 160.668 30.246 156.707H30.253Z" fill="#41414F"/>
<path d="M44.5438 8.88145C43.0213 9.95147 41.8316 11.149 41.4988 10.9435C40.4011 10.2704 39.5089 9.15782 38.8149 8.04528C38.7157 7.88938 40.3445 6.10366 40.8048 6.24538C41.9591 6.60678 42.8938 7.64845 44.5367 8.87437L44.5438 8.88145Z" fill="#41414F"/>
<path d="M90.1482 92.3216C88.2362 93.4696 86.7278 94.9293 86.1259 94.6175C84.7875 93.9302 83.9023 92.357 82.833 91.1453C83.959 90.2453 85.2124 88.5021 86.1684 88.651C87.3864 88.8423 88.3637 90.5642 90.1482 92.3145V92.3216Z" fill="#41414F"/>
</svg>
