<svg width="746" height="6" viewBox="0 0 746 6" fill="none" xmlns="http://www.w3.org/2000/svg">
<path d="M745.667 3C745.667 1.52724 744.473 0.333333 743 0.333333C741.527 0.333333 740.333 1.52724 740.333 3C740.333 4.47276 741.527 5.66667 743 5.66667C744.473 5.66667 745.667 4.47276 745.667 3ZM5.66663 3C5.66663 1.52724 4.47272 0.333333 3 0.333333C1.52722 0.333333 0.333313 1.52724 0.333313 3C0.333313 4.47276 1.52722 5.66667 3 5.66667C4.47272 5.66667 5.66663 4.47276 5.66663 3ZM743 2.5L3 2.5V3.5L743 3.5V2.5Z" fill="white"/>
</svg>
