<svg width="227" height="22" viewBox="0 0 227 22" fill="none" xmlns="http://www.w3.org/2000/svg">
<path d="M42.0078 5.625V17H40.5078V6.85938H34.8984V17H33.3906V5.625H42.0078ZM48.0312 17.1562C47.4427 17.1562 46.9089 17.0573 46.4297 16.8594C45.9557 16.6562 45.5469 16.3724 45.2031 16.0078C44.8646 15.6432 44.6042 15.2109 44.4219 14.7109C44.2396 14.2109 44.1484 13.6641 44.1484 13.0703V12.7422C44.1484 12.0547 44.25 11.4427 44.4531 10.9062C44.6562 10.3646 44.9323 9.90625 45.2812 9.53125C45.6302 9.15625 46.026 8.8724 46.4688 8.67969C46.9115 8.48698 47.3698 8.39062 47.8438 8.39062C48.4479 8.39062 48.9688 8.49479 49.4062 8.70312C49.849 8.91146 50.2109 9.20312 50.4922 9.57812C50.7734 9.94792 50.9818 10.3854 51.1172 10.8906C51.2526 11.3906 51.3203 11.9375 51.3203 12.5312V13.1797H45.0078V12H49.875V11.8906C49.8542 11.5156 49.776 11.151 49.6406 10.7969C49.5104 10.4427 49.3021 10.151 49.0156 9.92188C48.7292 9.69271 48.3385 9.57812 47.8438 9.57812C47.5156 9.57812 47.2135 9.64844 46.9375 9.78906C46.6615 9.92448 46.4245 10.1276 46.2266 10.3984C46.0286 10.6693 45.875 11 45.7656 11.3906C45.6562 11.7812 45.6016 12.2318 45.6016 12.7422V13.0703C45.6016 13.4714 45.6562 13.849 45.7656 14.2031C45.8802 14.5521 46.0443 14.8594 46.2578 15.125C46.4766 15.3906 46.7396 15.599 47.0469 15.75C47.3594 15.901 47.7135 15.9766 48.1094 15.9766C48.6198 15.9766 49.0521 15.8724 49.4062 15.6641C49.7604 15.4557 50.0703 15.1771 50.3359 14.8281L51.2109 15.5234C51.0286 15.7995 50.7969 16.0625 50.5156 16.3125C50.2344 16.5625 49.888 16.7656 49.4766 16.9219C49.0703 17.0781 48.5885 17.1562 48.0312 17.1562ZM54.4531 10.1719V20.25H53V8.54688H54.3281L54.4531 10.1719ZM60.1484 12.7031V12.8672C60.1484 13.4818 60.0755 14.0521 59.9297 14.5781C59.7839 15.099 59.5703 15.5521 59.2891 15.9375C59.013 16.3229 58.6719 16.6224 58.2656 16.8359C57.8594 17.0495 57.3932 17.1562 56.8672 17.1562C56.3307 17.1562 55.8568 17.0677 55.4453 16.8906C55.0339 16.7135 54.6849 16.4557 54.3984 16.1172C54.112 15.7786 53.8828 15.3724 53.7109 14.8984C53.5443 14.4245 53.4297 13.8906 53.3672 13.2969V12.4219C53.4297 11.7969 53.5469 11.237 53.7188 10.7422C53.8906 10.2474 54.1172 9.82552 54.3984 9.47656C54.6849 9.1224 55.0312 8.85417 55.4375 8.67188C55.8438 8.48438 56.3125 8.39062 56.8438 8.39062C57.375 8.39062 57.8464 8.49479 58.2578 8.70312C58.6693 8.90625 59.0156 9.19792 59.2969 9.57812C59.5781 9.95833 59.7891 10.4141 59.9297 10.9453C60.0755 11.4714 60.1484 12.0573 60.1484 12.7031ZM58.6953 12.8672V12.7031C58.6953 12.2812 58.651 11.8854 58.5625 11.5156C58.474 11.1406 58.3359 10.8125 58.1484 10.5312C57.9661 10.2448 57.7318 10.0208 57.4453 9.85938C57.1589 9.69271 56.8177 9.60938 56.4219 9.60938C56.0573 9.60938 55.7396 9.67188 55.4688 9.79688C55.2031 9.92188 54.9766 10.0911 54.7891 10.3047C54.6016 10.513 54.4479 10.7526 54.3281 11.0234C54.2135 11.2891 54.1276 11.5651 54.0703 11.8516V13.875C54.1745 14.2396 54.3203 14.5833 54.5078 14.9062C54.6953 15.224 54.9453 15.4818 55.2578 15.6797C55.5703 15.8724 55.9635 15.9688 56.4375 15.9688C56.8281 15.9688 57.1641 15.888 57.4453 15.7266C57.7318 15.5599 57.9661 15.3333 58.1484 15.0469C58.3359 14.7604 58.474 14.4323 58.5625 14.0625C58.651 13.6875 58.6953 13.2891 58.6953 12.8672ZM65.5 17.1562C64.9115 17.1562 64.3776 17.0573 63.8984 16.8594C63.4245 16.6562 63.0156 16.3724 62.6719 16.0078C62.3333 15.6432 62.0729 15.2109 61.8906 14.7109C61.7083 14.2109 61.6172 13.6641 61.6172 13.0703V12.7422C61.6172 12.0547 61.7188 11.4427 61.9219 10.9062C62.125 10.3646 62.401 9.90625 62.75 9.53125C63.099 9.15625 63.4948 8.8724 63.9375 8.67969C64.3802 8.48698 64.8385 8.39062 65.3125 8.39062C65.9167 8.39062 66.4375 8.49479 66.875 8.70312C67.3177 8.91146 67.6797 9.20312 67.9609 9.57812C68.2422 9.94792 68.4505 10.3854 68.5859 10.8906C68.7214 11.3906 68.7891 11.9375 68.7891 12.5312V13.1797H62.4766V12H67.3438V11.8906C67.3229 11.5156 67.2448 11.151 67.1094 10.7969C66.9792 10.4427 66.7708 10.151 66.4844 9.92188C66.1979 9.69271 65.8073 9.57812 65.3125 9.57812C64.9844 9.57812 64.6823 9.64844 64.4062 9.78906C64.1302 9.92448 63.8932 10.1276 63.6953 10.3984C63.4974 10.6693 63.3438 11 63.2344 11.3906C63.125 11.7812 63.0703 12.2318 63.0703 12.7422V13.0703C63.0703 13.4714 63.125 13.849 63.2344 14.2031C63.349 14.5521 63.513 14.8594 63.7266 15.125C63.9453 15.3906 64.2083 15.599 64.5156 15.75C64.8281 15.901 65.1823 15.9766 65.5781 15.9766C66.0885 15.9766 66.5208 15.8724 66.875 15.6641C67.2292 15.4557 67.5391 15.1771 67.8047 14.8281L68.6797 15.5234C68.4974 15.7995 68.2656 16.0625 67.9844 16.3125C67.7031 16.5625 67.3568 16.7656 66.9453 16.9219C66.5391 17.0781 66.0573 17.1562 65.5 17.1562ZM72 8.54688H73.4453L73.3203 11.7109C73.2891 12.513 73.1979 13.2057 73.0469 13.7891C72.8958 14.3724 72.7031 14.8698 72.4688 15.2812C72.2344 15.6875 71.9714 16.0286 71.6797 16.3047C71.3932 16.5807 71.0964 16.8125 70.7891 17H70.0703L70.1094 15.8203L70.4062 15.8125C70.5781 15.6094 70.7448 15.401 70.9062 15.1875C71.0677 14.9688 71.2161 14.7109 71.3516 14.4141C71.487 14.112 71.599 13.7448 71.6875 13.3125C71.7812 12.875 71.8411 12.3411 71.8672 11.7109L72 8.54688ZM72.3594 8.54688H77.4453V17H76V9.88281H72.3594V8.54688ZM69.7422 15.8125H78.5312V19.4922H77.0859V17H71.1875V19.4922H69.7344L69.7422 15.8125ZM85.1172 15.5547V11.2031C85.1172 10.8698 85.0495 10.5807 84.9141 10.3359C84.7839 10.0859 84.5859 9.89323 84.3203 9.75781C84.0547 9.6224 83.7266 9.55469 83.3359 9.55469C82.9714 9.55469 82.651 9.61719 82.375 9.74219C82.1042 9.86719 81.8906 10.0312 81.7344 10.2344C81.5833 10.4375 81.5078 10.6562 81.5078 10.8906H80.0625C80.0625 10.5885 80.1406 10.2891 80.2969 9.99219C80.4531 9.69531 80.6771 9.42708 80.9688 9.1875C81.2656 8.94271 81.6198 8.75 82.0312 8.60938C82.4479 8.46354 82.9115 8.39062 83.4219 8.39062C84.0365 8.39062 84.5781 8.49479 85.0469 8.70312C85.5208 8.91146 85.8906 9.22656 86.1562 9.64844C86.4271 10.0651 86.5625 10.5885 86.5625 11.2188V15.1562C86.5625 15.4375 86.5859 15.737 86.6328 16.0547C86.6849 16.3724 86.7604 16.6458 86.8594 16.875V17H85.3516C85.2786 16.8333 85.2214 16.612 85.1797 16.3359C85.138 16.0547 85.1172 15.7943 85.1172 15.5547ZM85.3672 11.875L85.3828 12.8906H83.9219C83.5104 12.8906 83.1432 12.9245 82.8203 12.9922C82.4974 13.0547 82.2266 13.151 82.0078 13.2812C81.7891 13.4115 81.6224 13.5755 81.5078 13.7734C81.3932 13.9661 81.3359 14.1927 81.3359 14.4531C81.3359 14.7188 81.3958 14.9609 81.5156 15.1797C81.6354 15.3984 81.8151 15.5729 82.0547 15.7031C82.2995 15.8281 82.599 15.8906 82.9531 15.8906C83.3958 15.8906 83.7865 15.7969 84.125 15.6094C84.4635 15.4219 84.7318 15.1927 84.9297 14.9219C85.1328 14.651 85.2422 14.388 85.2578 14.1328L85.875 14.8281C85.8385 15.0469 85.7396 15.2891 85.5781 15.5547C85.4167 15.8203 85.2005 16.0755 84.9297 16.3203C84.6641 16.5599 84.3464 16.7604 83.9766 16.9219C83.612 17.0781 83.2005 17.1562 82.7422 17.1562C82.1693 17.1562 81.6667 17.0443 81.2344 16.8203C80.8073 16.5964 80.474 16.2969 80.2344 15.9219C80 15.5417 79.8828 15.1172 79.8828 14.6484C79.8828 14.1953 79.9714 13.7969 80.1484 13.4531C80.3255 13.1042 80.5807 12.8151 80.9141 12.5859C81.2474 12.3516 81.6484 12.1745 82.1172 12.0547C82.5859 11.9349 83.1094 11.875 83.6875 11.875H85.3672ZM95.2109 8.54688V17H93.7656V8.54688H95.2109ZM94.7188 12.4297V13.6172C94.4271 13.7266 94.1302 13.8255 93.8281 13.9141C93.5312 13.9974 93.2161 14.0651 92.8828 14.1172C92.5547 14.1641 92.1979 14.1875 91.8125 14.1875C91.1458 14.1875 90.5677 14.0729 90.0781 13.8438C89.5885 13.6094 89.2109 13.2578 88.9453 12.7891C88.6797 12.3151 88.5469 11.7188 88.5469 11V8.53125H89.9922V11C89.9922 11.4688 90.0625 11.849 90.2031 12.1406C90.3438 12.4323 90.5495 12.6484 90.8203 12.7891C91.0911 12.9245 91.4219 12.9922 91.8125 12.9922C92.1875 12.9922 92.5391 12.9688 92.8672 12.9219C93.2005 12.8698 93.5182 12.8021 93.8203 12.7188C94.1276 12.6354 94.4271 12.5391 94.7188 12.4297ZM102.523 15.5547V11.2031C102.523 10.8698 102.456 10.5807 102.32 10.3359C102.19 10.0859 101.992 9.89323 101.727 9.75781C101.461 9.6224 101.133 9.55469 100.742 9.55469C100.378 9.55469 100.057 9.61719 99.7812 9.74219C99.5104 9.86719 99.2969 10.0312 99.1406 10.2344C98.9896 10.4375 98.9141 10.6562 98.9141 10.8906H97.4688C97.4688 10.5885 97.5469 10.2891 97.7031 9.99219C97.8594 9.69531 98.0833 9.42708 98.375 9.1875C98.6719 8.94271 99.026 8.75 99.4375 8.60938C99.8542 8.46354 100.318 8.39062 100.828 8.39062C101.443 8.39062 101.984 8.49479 102.453 8.70312C102.927 8.91146 103.297 9.22656 103.562 9.64844C103.833 10.0651 103.969 10.5885 103.969 11.2188V15.1562C103.969 15.4375 103.992 15.737 104.039 16.0547C104.091 16.3724 104.167 16.6458 104.266 16.875V17H102.758C102.685 16.8333 102.628 16.612 102.586 16.3359C102.544 16.0547 102.523 15.7943 102.523 15.5547ZM102.773 11.875L102.789 12.8906H101.328C100.917 12.8906 100.549 12.9245 100.227 12.9922C99.9036 13.0547 99.6328 13.151 99.4141 13.2812C99.1953 13.4115 99.0286 13.5755 98.9141 13.7734C98.7995 13.9661 98.7422 14.1927 98.7422 14.4531C98.7422 14.7188 98.8021 14.9609 98.9219 15.1797C99.0417 15.3984 99.2214 15.5729 99.4609 15.7031C99.7057 15.8281 100.005 15.8906 100.359 15.8906C100.802 15.8906 101.193 15.7969 101.531 15.6094C101.87 15.4219 102.138 15.1927 102.336 14.9219C102.539 14.651 102.648 14.388 102.664 14.1328L103.281 14.8281C103.245 15.0469 103.146 15.2891 102.984 15.5547C102.823 15.8203 102.607 16.0755 102.336 16.3203C102.07 16.5599 101.753 16.7604 101.383 16.9219C101.018 17.0781 100.607 17.1562 100.148 17.1562C99.5755 17.1562 99.0729 17.0443 98.6406 16.8203C98.2135 16.5964 97.8802 16.2969 97.6406 15.9219C97.4062 15.5417 97.2891 15.1172 97.2891 14.6484C97.2891 14.1953 97.3776 13.7969 97.5547 13.4531C97.7318 13.1042 97.987 12.8151 98.3203 12.5859C98.6536 12.3516 99.0547 12.1745 99.5234 12.0547C99.9922 11.9349 100.516 11.875 101.094 11.875H102.773ZM115.195 15.5547V11.2031C115.195 10.8698 115.128 10.5807 114.992 10.3359C114.862 10.0859 114.664 9.89323 114.398 9.75781C114.133 9.6224 113.805 9.55469 113.414 9.55469C113.049 9.55469 112.729 9.61719 112.453 9.74219C112.182 9.86719 111.969 10.0312 111.812 10.2344C111.661 10.4375 111.586 10.6562 111.586 10.8906H110.141C110.141 10.5885 110.219 10.2891 110.375 9.99219C110.531 9.69531 110.755 9.42708 111.047 9.1875C111.344 8.94271 111.698 8.75 112.109 8.60938C112.526 8.46354 112.99 8.39062 113.5 8.39062C114.115 8.39062 114.656 8.49479 115.125 8.70312C115.599 8.91146 115.969 9.22656 116.234 9.64844C116.505 10.0651 116.641 10.5885 116.641 11.2188V15.1562C116.641 15.4375 116.664 15.737 116.711 16.0547C116.763 16.3724 116.839 16.6458 116.938 16.875V17H115.43C115.357 16.8333 115.299 16.612 115.258 16.3359C115.216 16.0547 115.195 15.7943 115.195 15.5547ZM115.445 11.875L115.461 12.8906H114C113.589 12.8906 113.221 12.9245 112.898 12.9922C112.576 13.0547 112.305 13.151 112.086 13.2812C111.867 13.4115 111.701 13.5755 111.586 13.7734C111.471 13.9661 111.414 14.1927 111.414 14.4531C111.414 14.7188 111.474 14.9609 111.594 15.1797C111.714 15.3984 111.893 15.5729 112.133 15.7031C112.378 15.8281 112.677 15.8906 113.031 15.8906C113.474 15.8906 113.865 15.7969 114.203 15.6094C114.542 15.4219 114.81 15.1927 115.008 14.9219C115.211 14.651 115.32 14.388 115.336 14.1328L115.953 14.8281C115.917 15.0469 115.818 15.2891 115.656 15.5547C115.495 15.8203 115.279 16.0755 115.008 16.3203C114.742 16.5599 114.424 16.7604 114.055 16.9219C113.69 17.0781 113.279 17.1562 112.82 17.1562C112.247 17.1562 111.745 17.0443 111.312 16.8203C110.885 16.5964 110.552 16.2969 110.312 15.9219C110.078 15.5417 109.961 15.1172 109.961 14.6484C109.961 14.1953 110.049 13.7969 110.227 13.4531C110.404 13.1042 110.659 12.8151 110.992 12.5859C111.326 12.3516 111.727 12.1745 112.195 12.0547C112.664 11.9349 113.188 11.875 113.766 11.875H115.445ZM122.883 13.2812H120.109L120.094 12.125H122.359C122.807 12.125 123.18 12.0807 123.477 11.9922C123.779 11.9036 124.005 11.7708 124.156 11.5938C124.307 11.4167 124.383 11.1979 124.383 10.9375C124.383 10.7344 124.339 10.5573 124.25 10.4062C124.167 10.25 124.039 10.1224 123.867 10.0234C123.695 9.91927 123.482 9.84375 123.227 9.79688C122.977 9.74479 122.682 9.71875 122.344 9.71875H120.492V17H119.047V8.54688H122.344C122.88 8.54688 123.362 8.59375 123.789 8.6875C124.221 8.78125 124.589 8.92448 124.891 9.11719C125.198 9.30469 125.432 9.54427 125.594 9.83594C125.755 10.1276 125.836 10.4714 125.836 10.8672C125.836 11.1224 125.784 11.3646 125.68 11.5938C125.576 11.8229 125.422 12.026 125.219 12.2031C125.016 12.3802 124.766 12.526 124.469 12.6406C124.172 12.75 123.831 12.8203 123.445 12.8516L122.883 13.2812ZM122.883 17H119.586L120.305 15.8281H122.883C123.284 15.8281 123.617 15.7786 123.883 15.6797C124.148 15.5755 124.346 15.4297 124.477 15.2422C124.612 15.0495 124.68 14.8203 124.68 14.5547C124.68 14.2891 124.612 14.0625 124.477 13.875C124.346 13.6823 124.148 13.5365 123.883 13.4375C123.617 13.3333 123.284 13.2812 122.883 13.2812H120.688L120.703 12.125H123.445L123.969 12.5625C124.432 12.599 124.826 12.7135 125.148 12.9062C125.471 13.099 125.716 13.3438 125.883 13.6406C126.049 13.9323 126.133 14.25 126.133 14.5938C126.133 14.9896 126.057 15.3385 125.906 15.6406C125.76 15.9427 125.547 16.1953 125.266 16.3984C124.984 16.5964 124.643 16.7474 124.242 16.8516C123.841 16.9505 123.388 17 122.883 17ZM131.422 8.54688V17H129.969V8.54688H131.422ZM134.258 8.54688V9.71875H127.188V8.54688H134.258ZM134.969 12.8672V12.6875C134.969 12.0781 135.057 11.513 135.234 10.9922C135.411 10.4661 135.667 10.0104 136 9.625C136.333 9.23438 136.737 8.93229 137.211 8.71875C137.685 8.5 138.216 8.39062 138.805 8.39062C139.398 8.39062 139.932 8.5 140.406 8.71875C140.885 8.93229 141.292 9.23438 141.625 9.625C141.964 10.0104 142.221 10.4661 142.398 10.9922C142.576 11.513 142.664 12.0781 142.664 12.6875V12.8672C142.664 13.4766 142.576 14.0417 142.398 14.5625C142.221 15.0833 141.964 15.5391 141.625 15.9297C141.292 16.3151 140.888 16.6172 140.414 16.8359C139.945 17.0495 139.414 17.1562 138.82 17.1562C138.227 17.1562 137.693 17.0495 137.219 16.8359C136.745 16.6172 136.339 16.3151 136 15.9297C135.667 15.5391 135.411 15.0833 135.234 14.5625C135.057 14.0417 134.969 13.4766 134.969 12.8672ZM136.414 12.6875V12.8672C136.414 13.2891 136.464 13.6875 136.562 14.0625C136.661 14.4323 136.81 14.7604 137.008 15.0469C137.211 15.3333 137.464 15.5599 137.766 15.7266C138.068 15.888 138.419 15.9688 138.82 15.9688C139.216 15.9688 139.562 15.888 139.859 15.7266C140.161 15.5599 140.411 15.3333 140.609 15.0469C140.807 14.7604 140.956 14.4323 141.055 14.0625C141.159 13.6875 141.211 13.2891 141.211 12.8672V12.6875C141.211 12.2708 141.159 11.8776 141.055 11.5078C140.956 11.1328 140.805 10.8021 140.602 10.5156C140.404 10.224 140.154 9.99479 139.852 9.82812C139.555 9.66146 139.206 9.57812 138.805 9.57812C138.409 9.57812 138.06 9.66146 137.758 9.82812C137.461 9.99479 137.211 10.224 137.008 10.5156C136.81 10.8021 136.661 11.1328 136.562 11.5078C136.464 11.8776 136.414 12.2708 136.414 12.6875ZM145.922 10.1719V20.25H144.469V8.54688H145.797L145.922 10.1719ZM151.617 12.7031V12.8672C151.617 13.4818 151.544 14.0521 151.398 14.5781C151.253 15.099 151.039 15.5521 150.758 15.9375C150.482 16.3229 150.141 16.6224 149.734 16.8359C149.328 17.0495 148.862 17.1562 148.336 17.1562C147.799 17.1562 147.326 17.0677 146.914 16.8906C146.503 16.7135 146.154 16.4557 145.867 16.1172C145.581 15.7786 145.352 15.3724 145.18 14.8984C145.013 14.4245 144.898 13.8906 144.836 13.2969V12.4219C144.898 11.7969 145.016 11.237 145.188 10.7422C145.359 10.2474 145.586 9.82552 145.867 9.47656C146.154 9.1224 146.5 8.85417 146.906 8.67188C147.312 8.48438 147.781 8.39062 148.312 8.39062C148.844 8.39062 149.315 8.49479 149.727 8.70312C150.138 8.90625 150.484 9.19792 150.766 9.57812C151.047 9.95833 151.258 10.4141 151.398 10.9453C151.544 11.4714 151.617 12.0573 151.617 12.7031ZM150.164 12.8672V12.7031C150.164 12.2812 150.12 11.8854 150.031 11.5156C149.943 11.1406 149.805 10.8125 149.617 10.5312C149.435 10.2448 149.201 10.0208 148.914 9.85938C148.628 9.69271 148.286 9.60938 147.891 9.60938C147.526 9.60938 147.208 9.67188 146.938 9.79688C146.672 9.92188 146.445 10.0911 146.258 10.3047C146.07 10.513 145.917 10.7526 145.797 11.0234C145.682 11.2891 145.596 11.5651 145.539 11.8516V13.875C145.643 14.2396 145.789 14.5833 145.977 14.9062C146.164 15.224 146.414 15.4818 146.727 15.6797C147.039 15.8724 147.432 15.9688 147.906 15.9688C148.297 15.9688 148.633 15.888 148.914 15.7266C149.201 15.5599 149.435 15.3333 149.617 15.0469C149.805 14.7604 149.943 14.4323 150.031 14.0625C150.12 13.6875 150.164 13.2891 150.164 12.8672ZM156.844 15.9688C157.188 15.9688 157.505 15.8984 157.797 15.7578C158.089 15.6172 158.328 15.4245 158.516 15.1797C158.703 14.9297 158.81 14.6458 158.836 14.3281H160.211C160.185 14.8281 160.016 15.2943 159.703 15.7266C159.396 16.1536 158.992 16.5 158.492 16.7656C157.992 17.026 157.443 17.1562 156.844 17.1562C156.208 17.1562 155.654 17.0443 155.18 16.8203C154.711 16.5964 154.32 16.2891 154.008 15.8984C153.701 15.5078 153.469 15.0599 153.312 14.5547C153.161 14.0443 153.086 13.5052 153.086 12.9375V12.6094C153.086 12.0417 153.161 11.5052 153.312 11C153.469 10.4896 153.701 10.0391 154.008 9.64844C154.32 9.25781 154.711 8.95052 155.18 8.72656C155.654 8.5026 156.208 8.39062 156.844 8.39062C157.505 8.39062 158.083 8.52604 158.578 8.79688C159.073 9.0625 159.461 9.42708 159.742 9.89062C160.029 10.349 160.185 10.8698 160.211 11.4531H158.836C158.81 11.1042 158.711 10.7891 158.539 10.5078C158.372 10.2266 158.143 10.0026 157.852 9.83594C157.565 9.66406 157.229 9.57812 156.844 9.57812C156.401 9.57812 156.029 9.66667 155.727 9.84375C155.43 10.0156 155.193 10.25 155.016 10.5469C154.844 10.8385 154.719 11.1641 154.641 11.5234C154.568 11.8776 154.531 12.2396 154.531 12.6094V12.9375C154.531 13.3073 154.568 13.6719 154.641 14.0312C154.714 14.3906 154.836 14.7161 155.008 15.0078C155.185 15.2995 155.422 15.5339 155.719 15.7109C156.021 15.8828 156.396 15.9688 156.844 15.9688ZM163.406 8.54688V17H161.961V8.54688H163.406ZM168.953 8.54688L164.945 13.3906H162.922L162.703 12.125H164.359L167.195 8.54688H168.953ZM167.398 17L164.289 13.1719L165.219 12.125L169.234 17H167.398ZM172.055 14.7109L175.953 8.54688H177.406V17H175.953V10.8359L172.055 17H170.617V8.54688H172.055V14.7109ZM180.703 8.54688L182.555 11.625L184.43 8.54688H186.125L183.359 12.7188L186.211 17H184.539L182.586 13.8281L180.633 17H178.953L181.797 12.7188L179.039 8.54688H180.703ZM197.266 8.54688V9.74219H192.992V8.54688H197.266ZM193.203 8.54688V17H191.758V8.54688H193.203ZM198.547 8.54688V17H197.094V8.54688H198.547ZM202.312 10.1719V20.25H200.859V8.54688H202.188L202.312 10.1719ZM208.008 12.7031V12.8672C208.008 13.4818 207.935 14.0521 207.789 14.5781C207.643 15.099 207.43 15.5521 207.148 15.9375C206.872 16.3229 206.531 16.6224 206.125 16.8359C205.719 17.0495 205.253 17.1562 204.727 17.1562C204.19 17.1562 203.716 17.0677 203.305 16.8906C202.893 16.7135 202.544 16.4557 202.258 16.1172C201.971 15.7786 201.742 15.3724 201.57 14.8984C201.404 14.4245 201.289 13.8906 201.227 13.2969V12.4219C201.289 11.7969 201.406 11.237 201.578 10.7422C201.75 10.2474 201.977 9.82552 202.258 9.47656C202.544 9.1224 202.891 8.85417 203.297 8.67188C203.703 8.48438 204.172 8.39062 204.703 8.39062C205.234 8.39062 205.706 8.49479 206.117 8.70312C206.529 8.90625 206.875 9.19792 207.156 9.57812C207.438 9.95833 207.648 10.4141 207.789 10.9453C207.935 11.4714 208.008 12.0573 208.008 12.7031ZM206.555 12.8672V12.7031C206.555 12.2812 206.51 11.8854 206.422 11.5156C206.333 11.1406 206.195 10.8125 206.008 10.5312C205.826 10.2448 205.591 10.0208 205.305 9.85938C205.018 9.69271 204.677 9.60938 204.281 9.60938C203.917 9.60938 203.599 9.67188 203.328 9.79688C203.062 9.92188 202.836 10.0911 202.648 10.3047C202.461 10.513 202.307 10.7526 202.188 11.0234C202.073 11.2891 201.987 11.5651 201.93 11.8516V13.875C202.034 14.2396 202.18 14.5833 202.367 14.9062C202.555 15.224 202.805 15.4818 203.117 15.6797C203.43 15.8724 203.823 15.9688 204.297 15.9688C204.688 15.9688 205.023 15.888 205.305 15.7266C205.591 15.5599 205.826 15.3333 206.008 15.0469C206.195 14.7604 206.333 14.4323 206.422 14.0625C206.51 13.6875 206.555 13.2891 206.555 12.8672ZM214.836 15.5547V11.2031C214.836 10.8698 214.768 10.5807 214.633 10.3359C214.503 10.0859 214.305 9.89323 214.039 9.75781C213.773 9.6224 213.445 9.55469 213.055 9.55469C212.69 9.55469 212.37 9.61719 212.094 9.74219C211.823 9.86719 211.609 10.0312 211.453 10.2344C211.302 10.4375 211.227 10.6562 211.227 10.8906H209.781C209.781 10.5885 209.859 10.2891 210.016 9.99219C210.172 9.69531 210.396 9.42708 210.688 9.1875C210.984 8.94271 211.339 8.75 211.75 8.60938C212.167 8.46354 212.63 8.39062 213.141 8.39062C213.755 8.39062 214.297 8.49479 214.766 8.70312C215.24 8.91146 215.609 9.22656 215.875 9.64844C216.146 10.0651 216.281 10.5885 216.281 11.2188V15.1562C216.281 15.4375 216.305 15.737 216.352 16.0547C216.404 16.3724 216.479 16.6458 216.578 16.875V17H215.07C214.997 16.8333 214.94 16.612 214.898 16.3359C214.857 16.0547 214.836 15.7943 214.836 15.5547ZM215.086 11.875L215.102 12.8906H213.641C213.229 12.8906 212.862 12.9245 212.539 12.9922C212.216 13.0547 211.945 13.151 211.727 13.2812C211.508 13.4115 211.341 13.5755 211.227 13.7734C211.112 13.9661 211.055 14.1927 211.055 14.4531C211.055 14.7188 211.115 14.9609 211.234 15.1797C211.354 15.3984 211.534 15.5729 211.773 15.7031C212.018 15.8281 212.318 15.8906 212.672 15.8906C213.115 15.8906 213.505 15.7969 213.844 15.6094C214.182 15.4219 214.451 15.1927 214.648 14.9219C214.852 14.651 214.961 14.388 214.977 14.1328L215.594 14.8281C215.557 15.0469 215.458 15.2891 215.297 15.5547C215.135 15.8203 214.919 16.0755 214.648 16.3203C214.383 16.5599 214.065 16.7604 213.695 16.9219C213.331 17.0781 212.919 17.1562 212.461 17.1562C211.888 17.1562 211.385 17.0443 210.953 16.8203C210.526 16.5964 210.193 16.2969 209.953 15.9219C209.719 15.5417 209.602 15.1172 209.602 14.6484C209.602 14.1953 209.69 13.7969 209.867 13.4531C210.044 13.1042 210.299 12.8151 210.633 12.5859C210.966 12.3516 211.367 12.1745 211.836 12.0547C212.305 11.9349 212.828 11.875 213.406 11.875H215.086ZM222.523 13.2812H219.75L219.734 12.125H222C222.448 12.125 222.82 12.0807 223.117 11.9922C223.419 11.9036 223.646 11.7708 223.797 11.5938C223.948 11.4167 224.023 11.1979 224.023 10.9375C224.023 10.7344 223.979 10.5573 223.891 10.4062C223.807 10.25 223.68 10.1224 223.508 10.0234C223.336 9.91927 223.122 9.84375 222.867 9.79688C222.617 9.74479 222.323 9.71875 221.984 9.71875H220.133V17H218.688V8.54688H221.984C222.521 8.54688 223.003 8.59375 223.43 8.6875C223.862 8.78125 224.229 8.92448 224.531 9.11719C224.839 9.30469 225.073 9.54427 225.234 9.83594C225.396 10.1276 225.477 10.4714 225.477 10.8672C225.477 11.1224 225.424 11.3646 225.32 11.5938C225.216 11.8229 225.062 12.026 224.859 12.2031C224.656 12.3802 224.406 12.526 224.109 12.6406C223.812 12.75 223.471 12.8203 223.086 12.8516L222.523 13.2812ZM222.523 17H219.227L219.945 15.8281H222.523C222.924 15.8281 223.258 15.7786 223.523 15.6797C223.789 15.5755 223.987 15.4297 224.117 15.2422C224.253 15.0495 224.32 14.8203 224.32 14.5547C224.32 14.2891 224.253 14.0625 224.117 13.875C223.987 13.6823 223.789 13.5365 223.523 13.4375C223.258 13.3333 222.924 13.2812 222.523 13.2812H220.328L220.344 12.125H223.086L223.609 12.5625C224.073 12.599 224.466 12.7135 224.789 12.9062C225.112 13.099 225.357 13.3438 225.523 13.6406C225.69 13.9323 225.773 14.25 225.773 14.5938C225.773 14.9896 225.698 15.3385 225.547 15.6406C225.401 15.9427 225.188 16.1953 224.906 16.3984C224.625 16.5964 224.284 16.7474 223.883 16.8516C223.482 16.9505 223.029 17 222.523 17Z" fill="#EBEBEB"/>
<circle cx="10" cy="10" r="9.5" fill="#EBEBEB" stroke="#EBEBEB"/>
<path d="M4 10.5L8 14.5L16 6" stroke="#1D1E2E" stroke-width="2"/>
</svg>
