<svg width="40" height="40" viewBox="0 0 40 40" fill="none" xmlns="http://www.w3.org/2000/svg">
<path d="M29.0279 27.1521H26.6518C25.7529 27.1521 25.482 26.4239 23.8706 24.8114C22.4622 23.4541 21.8674 23.2854 21.5112 23.2854C21.0185 23.2854 20.8841 23.4208 20.8841 24.0989V26.2364C20.8841 26.8146 20.6966 27.1531 19.1862 27.1531C17.7209 27.0547 16.2999 26.6095 15.0403 25.8543C13.7808 25.0991 12.7186 24.0555 11.9414 22.8094C10.096 20.5125 8.81193 17.8167 8.19141 14.9364C8.19141 14.5802 8.32682 14.2573 9.00599 14.2573H11.381C11.9914 14.2573 12.2112 14.5291 12.4508 15.1573C13.6039 18.551 15.5716 21.5031 16.3706 21.5031C16.6768 21.5031 16.8102 21.3677 16.8102 20.6041V17.1083C16.7091 15.5135 15.8622 15.3791 15.8622 14.8021C15.873 14.6498 15.9426 14.5077 16.0564 14.406C16.1702 14.3043 16.3191 14.2509 16.4716 14.2573H20.2049C20.7154 14.2573 20.8841 14.5114 20.8841 15.1219V19.8406C20.8841 20.35 21.1029 20.5187 21.257 20.5187C21.5633 20.5187 21.7987 20.35 22.3602 19.7896C23.5637 18.3218 24.5469 16.6866 25.2789 14.9354C25.3538 14.7251 25.4955 14.5452 25.6822 14.4229C25.869 14.3007 26.0906 14.2429 26.3133 14.2583H28.6893C29.4018 14.2583 29.5529 14.6146 29.4018 15.1229C28.5376 17.0587 27.4683 18.8963 26.2122 20.6041C25.956 20.9948 25.8539 21.1979 26.2122 21.6562C26.4477 22.0125 27.281 22.7083 27.8404 23.3698C28.655 24.1823 29.331 25.1219 29.8424 26.151C30.0466 26.8135 29.706 27.1521 29.0279 27.1521Z" fill="white"/>
<circle cx="20" cy="20" r="19.4495" stroke="white" stroke-width="1.10098"/>
</svg>
