<svg width="47" height="31" viewBox="0 0 47 31" fill="none" xmlns="http://www.w3.org/2000/svg">
<path d="M40.0284 2.92649C40.0847 2.91423 40.7711 2.72213 41.4422 2.58508C40.7311 2.85843 39.9802 3.06781 39.3886 3.25665C37.8344 3.75279 36.1525 3.8934 34.5308 3.8934C33.8215 3.8934 35.8342 3.6772 36.0948 3.63398C37.3907 3.41903 38.7392 3.20715 40.0284 2.92649Z" fill="white"/>
<path d="M1 30C2.24648 29.9311 4.12783 29.4964 5.27725 29.0449C7.3949 28.213 9.60638 27.5057 11.6635 26.5097C16.3175 24.2564 20.5504 21.587 24.981 18.9159C31.6968 14.8672 39.7635 10.2719 42.7536 2.6199C42.9539 2.10725 40.1448 2.90115 40.0284 2.92649C38.7392 3.20715 37.3907 3.41903 36.0948 3.63398C35.8342 3.6772 33.8215 3.8934 34.5308 3.8934C36.1525 3.8934 37.8344 3.75279 39.3886 3.25665C40.5588 2.88309 42.3528 2.42912 43.2275 1.55866C44.6626 0.130385 44.2938 1.76125 44.2938 2.87932C44.2938 5.82059 45.0789 8.57193 46 11.3221" stroke="white" stroke-width="1.54454" stroke-linecap="round"/>
</svg>
