<svg width="14" height="14" viewBox="0 0 14 14" fill="none" xmlns="http://www.w3.org/2000/svg">
<circle cx="7" cy="7" r="7" fill="#888891"/>
<path d="M7.76758 2.46875L7.62695 8.48633H6.41992L6.27344 2.46875H7.76758ZM6.23242 10.332C6.23242 10.1172 6.30273 9.9375 6.44336 9.79297C6.58789 9.64453 6.78711 9.57031 7.04102 9.57031C7.29102 9.57031 7.48828 9.64453 7.63281 9.79297C7.77734 9.9375 7.84961 10.1172 7.84961 10.332C7.84961 10.5391 7.77734 10.7168 7.63281 10.8652C7.48828 11.0098 7.29102 11.082 7.04102 11.082C6.78711 11.082 6.58789 11.0098 6.44336 10.8652C6.30273 10.7168 6.23242 10.5391 6.23242 10.332Z" fill="#111223"/>
</svg>
